<?xml version="1.0" encoding="UTF-8"?>
<svg version="1.1" xmlns="http://www.w3.org/2000/svg" width="512" height="512">
<path d="M0 0 C168.96 0 337.92 0 512 0 C512 168.96 512 337.92 512 512 C343.04 512 174.08 512 0 512 C0 343.04 0 174.08 0 0 Z " fill="#091421" transform="translate(0,0)"/>
<path d="M0 0 C38.94 0 77.88 0 118 0 C118.165 15.654375 118.33 31.30875 118.5 47.4375 C118.57283203 52.36743896 118.64566406 57.29737793 118.72070312 62.37670898 C118.75683594 68.42980957 118.75683594 68.42980957 118.7635498 71.26991272 C118.77577807 73.23966456 118.80379898 75.2093591 118.84460449 77.1787262 C119.2126388 95.88766161 119.2126388 95.88766161 114.22070312 101.67993164 C112.14367676 103.50746155 112.14367676 103.50746155 110 105 C109.24110474 105.54027328 108.48220947 106.08054657 107.70031738 106.63719177 C99.16959114 112.41304805 95.11327239 111 83 111 C83 85.26 83 59.52 83 33 C66.5 33 50 33 33 33 C33 38.94 33 44.88 33 51 C32.53092164 82.21716478 29.35587826 114.59805822 21.625 144.875 C21.45234619 145.55143555 21.27969238 146.22787109 21.10180664 146.92480469 C18.86885442 155.12811896 15.84255885 162.94608326 13 171 C36.43 171 59.86 171 84 171 C84 168.03 84 165.06 84 162 C94.89 162 105.78 162 117 162 C117 164.97 117 167.94 117 171 C124.26 171 131.52 171 139 171 C139 193.77 139 216.54 139 240 C128.11 240 117.22 240 106 240 C106 227.46 106 214.92 106 202 C69.7 202 33.4 202 -4 202 C-4 214.54 -4 227.08 -4 240 C-15.55 240 -27.1 240 -39 240 C-39.04010881 222.82006 -39.04010881 222.82006 -39.04882812 215.52148438 C-39.05481606 210.53278547 -39.06191503 205.54410483 -39.07543945 200.55541992 C-39.08627008 196.53542314 -39.09227721 192.51544595 -39.09487724 188.49543571 C-39.09673118 186.95837025 -39.10035119 185.42130591 -39.10573006 183.88424873 C-39.11294284 181.73864513 -39.11399084 179.59312345 -39.11352539 177.44750977 C-39.115746 176.22395279 -39.11796661 175.00039581 -39.12025452 173.73976135 C-39 171 -39 171 -38 170 C-34.77134311 169.53941477 -31.53707687 169.16317281 -28.296875 168.79296875 C-23.77599689 167.70560115 -21.20925129 165.77020953 -18.59375 161.94140625 C-14.20946633 152.40558926 -12.2305509 142.20218977 -10 132 C-9.76589165 131.00766609 -9.76589165 131.00766609 -9.52705383 129.99528503 C-8.29365975 124.68351298 -7.42994911 119.42048706 -6.81640625 114.00390625 C-6.66614487 112.69176651 -6.66614487 112.69176651 -6.5128479 111.3531189 C-6.18537614 108.42396537 -5.871678 105.49363936 -5.5625 102.5625 C-5.45394684 101.54407013 -5.34539368 100.52564026 -5.23355103 99.47634888 C-1.79153486 66.42862673 -1.16117193 33.18507151 0 0 Z " fill="#1071D7" transform="translate(121,134)"/>
<path d="M0 0 C0.62245605 0.26232422 1.24491211 0.52464844 1.88623047 0.79492188 C19.04055058 8.18283975 30.38549404 19.69939864 37.78125 36.89453125 C40.77279693 44.51722293 42 49.61156337 42 58 C30.45 58 18.9 58 7 58 C5.68 54.7 4.36 51.4 3 48 C-1.84841862 39.66602669 -9.45535051 33.40948733 -18.5 30.0625 C-30.7313295 26.99985214 -43.92961626 27.85499886 -55 34 C-64.78792827 40.3227389 -71.14104425 51.44131782 -73.58203125 62.6796875 C-73.93022882 64.44823057 -74.26124216 66.22029487 -74.5703125 67.99609375 C-75 70 -75 70 -76 71 C-78.59359322 71.08851529 -81.16039691 71.11525945 -83.75390625 71.09765625 C-84.52935287 71.0962413 -85.3047995 71.09482635 -86.10374451 71.09336853 C-88.59003494 71.08775345 -91.0762366 71.07519846 -93.5625 71.0625 C-95.24413933 71.05748694 -96.92578006 71.0529237 -98.60742188 71.04882812 C-102.73831566 71.03777913 -106.86914276 71.02050445 -111 71 C-111.60947663 51.94176257 -104.06557671 33.97763902 -91.5625 19.75 C-68.69455523 -4.61937548 -31.24751537 -13.34845317 0 0 Z " fill="#16B4A2" transform="translate(383,137)"/>
<path d="M0 0 C1.38594529 0.00031696 2.77191535 0.01163319 4.15771484 0.03173828 C4.88735443 0.03456818 5.61699402 0.03739807 6.3687439 0.04031372 C8.70221262 0.05152076 11.03529937 0.07662568 13.36865234 0.10205078 C14.94937597 0.11207993 16.53010561 0.1212059 18.11083984 0.12939453 C21.98859149 0.15146173 25.86605712 0.18599463 29.74365234 0.22705078 C29.87007735 8.80325362 29.87007735 8.80325362 28.86083984 12.34033203 C28.66643311 13.02538818 28.47202637 13.71044434 28.27172852 14.41625977 C28.05621338 15.1169458 27.84069824 15.81763184 27.61865234 16.53955078 C27.39346924 17.28084229 27.16828613 18.02213379 26.9362793 18.78588867 C21.13392505 37.08409117 8.5059869 51.39895651 -8.35009766 60.39892578 C-26.79207602 69.52504882 -51.25923907 71.80990458 -70.86962891 65.55126953 C-81.13660806 61.53684516 -90.03929523 56.66285544 -98.25634766 49.22705078 C-99.02591797 48.55029297 -99.79548828 47.87353516 -100.58837891 47.17626953 C-106.87961569 41.31373713 -111.01903075 34.62797533 -115.25634766 27.22705078 C-115.82611328 26.33501953 -116.39587891 25.44298828 -116.98291016 24.52392578 C-118.25634766 22.22705078 -118.25634766 22.22705078 -118.25634766 19.22705078 C-113.15200145 19.02788668 -108.0499593 18.88348299 -102.94262695 18.78759766 C-101.2091529 18.74759565 -99.47594484 18.69317167 -97.7434082 18.62353516 C-81.48856321 17.98700797 -81.48856321 17.98700797 -75.95947266 23.04345703 C-74.71678151 24.43058275 -73.48132758 25.82425955 -72.25634766 27.22705078 C-69.02562188 29.29055625 -69.02562188 29.29055625 -65.94384766 30.66455078 C-64.95771484 31.13763672 -63.97158203 31.61072266 -62.95556641 32.09814453 C-52.52617618 36.46007474 -36.70369018 36.25966668 -26.25634766 32.10205078 C-16.87793844 27.22255961 -10.56697307 20.42912111 -7.28759766 10.20751953 C-6.78920678 8.30615836 -6.32221572 6.39609641 -5.89697266 4.47705078 C-4.83965127 0.76353177 -3.82992221 0.26704361 0 0 Z " fill="#16B4A2" transform="translate(395.25634765625,275.77294921875)"/>
<path d="M0 0 C4.77170419 2.88102894 8.79611892 6.96723785 11.3125 12 C12.00742456 19.40493383 11.92223648 25.9100729 7.3125 32 C2.68230738 36.83571031 -1.329657 38.16651277 -7.9375 38.3125 C-13.87674367 38.2530415 -17.06475133 37.73754148 -21.6875 34 C-25.6875 28.97435897 -25.6875 28.97435897 -25.6875 25 C-35.31192956 25.05306766 -44.93432565 25.15432337 -54.55754757 25.31599331 C-59.02688068 25.3895875 -63.49516584 25.44698287 -67.96508789 25.46655273 C-72.28455963 25.4860736 -76.60145182 25.54919733 -80.9199543 25.6417408 C-82.56185918 25.66942323 -84.20410129 25.68177098 -85.84623528 25.67803764 C-96.91657691 25.58321543 -96.91657691 25.58321543 -106.06860352 31.35571289 C-107.31493236 32.8717675 -108.52557084 34.4183307 -109.6875 36 C-110.74080269 37.21635896 -111.80164078 38.42630251 -112.875 39.625 C-113.42027344 40.26050781 -113.96554688 40.89601562 -114.52734375 41.55078125 C-117.59842007 45.03281534 -120.76778783 48.42033064 -123.9375 51.8125 C-124.86018677 52.80080811 -124.86018677 52.80080811 -125.80151367 53.80908203 C-129.10407164 57.33719604 -129.10407164 57.33719604 -130.6875 59 C-131.43338379 59.81343872 -131.43338379 59.81343872 -132.19433594 60.64331055 C-135.13768943 63.31764269 -138.27442759 63.13035941 -142.04516602 63.14526367 C-143.1396254 63.15164352 -144.23408478 63.15802338 -145.36170959 63.16459656 C-147.13365944 63.16626579 -147.13365944 63.16626579 -148.94140625 63.16796875 C-150.15320053 63.17129715 -151.36499481 63.17462555 -152.61351013 63.17805481 C-155.17649963 63.18312027 -157.73949573 63.18546325 -160.30249023 63.18530273 C-164.23757679 63.18749308 -168.17238481 63.20566372 -172.10742188 63.22460938 C-174.59374904 63.22754251 -177.08007754 63.22952784 -179.56640625 63.23046875 C-180.74973038 63.23765427 -181.9330545 63.24483978 -183.15223694 63.25224304 C-184.24354416 63.24916641 -185.33485138 63.24608978 -186.45922852 63.24291992 C-187.42280777 63.24434494 -188.38638702 63.24576996 -189.37916565 63.24723816 C-191.6875 63 -191.6875 63 -193.6875 61 C-193.35778521 57.70285207 -193.0648161 56.3773161 -190.6875 54 C-188.71652222 53.74171448 -188.71652222 53.74171448 -186.27294922 53.72875977 C-185.35794647 53.71857315 -184.44294373 53.70838654 -183.50021362 53.69789124 C-182.01124069 53.69468117 -182.01124069 53.69468117 -180.4921875 53.69140625 C-178.39322658 53.66623064 -176.29426831 53.64083286 -174.1953125 53.61523438 C-170.88412255 53.58657137 -167.57297915 53.56255968 -164.26171875 53.54370117 C-161.0674532 53.52194382 -157.87375479 53.48247788 -154.6796875 53.44140625 C-153.20893265 53.44123253 -153.20893265 53.44123253 -151.70846558 53.4410553 C-144.80456848 53.34244947 -139.03828016 52.62365256 -133.42163086 48.22583008 C-132.83776611 47.58025146 -132.25390137 46.93467285 -131.65234375 46.26953125 C-130.98783203 45.54830078 -130.32332031 44.82707031 -129.63867188 44.08398438 C-128.97416016 43.33439453 -128.30964844 42.58480469 -127.625 41.8125 C-126.95662109 41.08224609 -126.28824219 40.35199219 -125.59960938 39.59960938 C-119.59804449 33.01480203 -113.72856978 26.30803372 -108.046875 19.4453125 C-105.60872479 16.85302636 -103.98218303 16.02528059 -100.44148254 15.7215271 C-99.08457951 15.6979911 -97.727462 15.68534111 -96.37036133 15.68115234 C-95.62865189 15.67110672 -94.88694244 15.6610611 -94.12275696 15.65071106 C-91.67168959 15.61982576 -89.22073171 15.60282927 -86.76953125 15.5859375 C-85.06987055 15.56723013 -83.37021917 15.54765704 -81.670578 15.5272522 C-77.19737238 15.47587936 -72.72413662 15.43628128 -68.25079346 15.39910889 C-63.68599971 15.35910149 -59.12133185 15.30799428 -54.55664062 15.2578125 C-45.60034878 15.16099225 -36.64398594 15.07660702 -27.6875 15 C-27.22859375 13.90042969 -26.7696875 12.80085937 -26.296875 11.66796875 C-24.04195917 6.26503841 -21.02691685 2.51635525 -15.7421875 -0.2734375 C-10.46534128 -2.13939453 -5.29132841 -1.43493652 0 0 Z " fill="#16B3A3" transform="translate(366.6875,201)"/>
<path d="M0 0 C4.50450805 2.712188 7.92311077 7.26443329 9.85546875 12.1171875 C10.75259665 19.25643687 10.74968149 25.61404308 6.35546875 31.53125 C1.86286237 36.28124529 -2.86008133 38.25338857 -9.26953125 38.5546875 C-15.42977193 38.53007935 -19.704812 36.34862362 -24.14453125 32.1171875 C-24.14453125 31.4571875 -24.14453125 30.7971875 -24.14453125 30.1171875 C-25.11286896 30.13597961 -25.11286896 30.13597961 -26.10076904 30.15515137 C-60.24049667 30.81047009 -94.37744995 31.23987956 -128.5236969 31.29885864 C-131.08763506 31.30470027 -133.65153232 31.31440796 -136.2154541 31.32519531 C-140.25962728 31.34170699 -144.30368925 31.34810107 -148.34789467 31.34638405 C-149.84436927 31.34722589 -151.34084607 31.35140542 -152.83730125 31.35907555 C-154.88231515 31.36879202 -156.92738059 31.36483351 -158.97241211 31.36010742 C-160.12204941 31.36153244 -161.27168671 31.36295746 -162.4561615 31.36442566 C-165.14453125 31.1171875 -165.14453125 31.1171875 -167.14453125 29.1171875 C-166.89453125 26.0546875 -166.89453125 26.0546875 -166.14453125 23.1171875 C-163.27338669 21.68161522 -160.7798455 21.95252634 -157.57006836 21.91186523 C-156.8897351 21.90196847 -156.20940184 21.8920717 -155.50845242 21.88187504 C-153.22962923 21.8500464 -150.95078736 21.82533534 -148.671875 21.80078125 C-147.05733812 21.78008559 -145.44280567 21.75904168 -143.82827759 21.7376709 C-139.48039333 21.68165764 -135.13245695 21.6323657 -130.78447342 21.58475876 C-128.09212604 21.55479983 -125.39980736 21.52296557 -122.70748901 21.49050903 C-91.18538691 21.11196085 -59.66882949 20.99145397 -28.14453125 21.1171875 C-28.17426025 20.37460693 -28.20398926 19.63202637 -28.23461914 18.86694336 C-28.2577417 17.88604736 -28.28086426 16.90515137 -28.3046875 15.89453125 C-28.3344165 14.92507568 -28.36414551 13.95562012 -28.39477539 12.95678711 C-27.91223031 7.48119513 -24.55976555 4.14713442 -20.50390625 0.73828125 C-14.18605756 -3.49822009 -6.75536149 -2.83158865 0 0 Z " fill="#16B2A3" transform="translate(340.14453125,255.8828125)"/>
<path d="M0 0 C0.71353638 0.00202423 1.42707275 0.00404846 2.16223145 0.00613403 C2.89091431 0.00517731 3.61959717 0.00422058 4.37036133 0.00323486 C5.91377855 0.00255318 7.45719861 0.00440666 9.00061035 0.00857544 C11.37095544 0.01392391 13.74111104 0.00863011 16.1114502 0.00222778 C17.60754437 0.00288857 19.10363842 0.00416973 20.59973145 0.00613403 C21.31326782 0.0041098 22.0268042 0.00208557 22.76196289 0 C27.76602953 0.02399462 27.76602953 0.02399462 28.88098145 1.13894653 C29.09660805 3.76839324 29.25919641 6.37978125 29.38098145 9.01394653 C29.7092458 15.74944481 30.26947626 22.4123895 30.88098145 29.13894653 C19.00098145 29.13894653 7.12098145 29.13894653 -5.11901855 29.13894653 C-5.87793366 25.34437102 -6.24724464 22.44033169 -6.25183105 18.65457153 C-6.25312012 17.63750122 -6.25440918 16.62043091 -6.2557373 15.57254028 C-6.25187012 14.52195435 -6.24800293 13.47136841 -6.24401855 12.38894653 C-6.24788574 11.32289185 -6.25175293 10.25683716 -6.2557373 9.15847778 C-6.25444824 8.14656372 -6.25315918 7.13464966 -6.25183105 6.09207153 C-6.25070312 5.16555786 -6.2495752 4.23904419 -6.24841309 3.28445435 C-5.99686676 -0.8864685 -3.61318918 0.01732533 0 0 Z " fill="#16B2A1" transform="translate(276.1190185546875,234.86105346679688)"/>
<path d="M0 0 C0 1.32 0 2.64 0 4 C0.66 4 1.32 4 2 4 C2.495 6.475 2.495 6.475 3 9 C-0.6836216 11.5289768 -3.12844809 12.37523641 -7.5847168 12.37231445 C-8.67902512 12.37854324 -9.77333344 12.38477203 -10.90080261 12.39118958 C-12.6572686 12.37737495 -12.6572686 12.37737495 -14.44921875 12.36328125 C-15.65818314 12.36377975 -16.86714752 12.36427826 -18.11274719 12.36479187 C-20.6638046 12.36245414 -23.21486443 12.35274347 -25.76586914 12.33618164 C-29.6833135 12.31252528 -33.60008019 12.31563121 -37.51757812 12.32226562 C-39.99479575 12.31669102 -42.47201049 12.30958251 -44.94921875 12.30078125 C-46.12626877 12.30169266 -47.30331879 12.30260406 -48.51603699 12.30354309 C-49.60088882 12.29401108 -50.68574066 12.28447906 -51.8034668 12.2746582 C-52.76101364 12.27005081 -53.71856049 12.26544342 -54.7051239 12.26069641 C-57 12 -57 12 -59 10 C-58.67028521 6.70285207 -58.3773161 5.3773161 -56 3 C-54.02229309 2.73498535 -54.02229309 2.73498535 -51.56958008 2.71289062 C-50.65134964 2.69947632 -49.7331192 2.68606201 -48.7870636 2.67224121 C-47.29338509 2.66432556 -47.29338509 2.66432556 -45.76953125 2.65625 C-44.74574875 2.6416272 -43.72196625 2.62700439 -42.66716003 2.61193848 C-39.38231334 2.56531809 -36.09752712 2.53121052 -32.8125 2.5 C-28.50628997 2.45875582 -24.20049842 2.40496659 -19.89453125 2.34375 C-18.90886673 2.3384729 -17.92320221 2.3331958 -16.90766907 2.32775879 C-11.11284303 2.24453148 -5.53571004 0 0 0 Z " fill="#1173D8" transform="translate(232,252)"/>
<path d="M0 0 C1.02090729 0.00007553 2.04181458 0.00015106 3.09365845 0.00022888 C4.75151871 0.00797081 4.75151871 0.00797081 6.44287109 0.01586914 C7.57203949 0.01728409 8.70120789 0.01869904 9.86459351 0.02015686 C13.48185848 0.02576796 17.09906223 0.03832237 20.71630859 0.05102539 C23.16422437 0.05603896 25.61214111 0.06060211 28.06005859 0.06469727 C34.07049625 0.07574099 40.08089805 0.09248996 46.09130859 0.11352539 C45.10130859 2.09352539 44.11130859 4.07352539 43.09130859 6.11352539 C47.05130859 6.11352539 51.01130859 6.11352539 55.09130859 6.11352539 C55.09130859 7.10352539 55.09130859 8.09352539 55.09130859 9.11352539 C47.17245282 9.15981485 39.25365333 9.19537721 31.33469582 9.21714973 C27.65781509 9.22759813 23.98102676 9.24177641 20.30419922 9.2644043 C16.75751204 9.2860953 13.21091387 9.29808606 9.6641655 9.30327988 C8.30933607 9.30698239 6.95451165 9.31421228 5.59972 9.3249855 C3.70585102 9.33944987 1.81189295 9.34034188 -0.08203125 9.34057617 C-1.16124847 9.3450174 -2.2404657 9.34945862 -3.35238647 9.35403442 C-5.90869141 9.11352539 -5.90869141 9.11352539 -7.90869141 7.11352539 C-7.65869141 4.05102539 -7.65869141 4.05102539 -6.90869141 1.11352539 C-4.42514099 -0.12824982 -2.77761519 -0.00684142 0 0 Z " fill="#1174D9" transform="translate(180.90869140625,277.886474609375)"/>
<path d="M0 0 C2.12890625 0.48046875 2.12890625 0.48046875 4.69140625 2.54296875 C6.47338398 6.18440151 6.63932667 8.47002257 6.12890625 12.48046875 C5.12890625 14.85546875 5.12890625 14.85546875 3.12890625 16.48046875 C0.41445402 17.38528616 -2.01687754 17.73083859 -4.87109375 17.48046875 C-7.73102853 15.71582814 -9.36892224 14.48481178 -10.87109375 11.48046875 C-11.27301223 7.86320239 -11.07218227 5.88264579 -9.43359375 2.60546875 C-6.18124194 -0.09160348 -4.13783909 -0.25222413 0 0 Z " fill="#091721" transform="translate(332.87109375,265.51953125)"/>
<path d="M0 0 C2.4375 1.5625 2.4375 1.5625 4 4 C4.61113838 6.80777729 4.65466318 9.19758219 4 12 C1.31886615 15.24985922 -0.35133418 15.89575014 -4.5 16.5625 C-8 16 -8 16 -10.9375 13.875 C-13 11 -13 11 -13.5625 8 C-12.87642343 4.34092496 -11.57265686 2.64832324 -9 0 C-5.81452856 -1.59273572 -3.39809153 -0.76164121 0 0 Z " fill="#091722" transform="translate(363,212)"/>
<path d="M0 0 C16.83 0 33.66 0 51 0 C50.01 1.98 49.02 3.96 48 6 C51.96 6 55.92 6 60 6 C60 6.99 60 7.98 60 9 C56.04 9 52.08 9 48 9 C47.34 6.69 46.68 4.38 46 2 C30.82 1.67 15.64 1.34 0 1 C0 0.67 0 0.34 0 0 Z " fill="#137ABB" transform="translate(176,278)"/>
<path d="M0 0 C0.66 0 1.32 0 2 0 C2 1.32 2 2.64 2 4 C2.66 4 3.32 4 4 4 C4.33 5.65 4.66 7.3 5 9 C3.68 9 2.36 9 1 9 C0.63877119 7.68942607 0.28619689 6.37646376 -0.0625 5.0625 C-0.35833984 3.96615234 -0.35833984 3.96615234 -0.66015625 2.84765625 C-0.77230469 2.23792969 -0.88445312 1.62820312 -1 1 C-0.67 0.67 -0.34 0.34 0 0 Z " fill="#1590C3" transform="translate(230,252)"/>
<path d="M0 0 C0.33 0.66 0.66 1.32 1 2 C-0.093125 2.28875 -1.18625 2.5775 -2.3125 2.875 C-6.04013845 3.81893204 -6.04013845 3.81893204 -9 6 C-9 3 -9 3 -7.3125 1.3125 C-4.6402007 -0.20421041 -3.02346601 -0.2519555 0 0 Z " fill="#0A2328" transform="translate(361,211)"/>
</svg>
