<svg width="300" height="50" viewBox="0 0 300 50" fill="none" xmlns="http://www.w3.org/2000/svg">
<g filter="url(#filter0_f_43_29)">
<circle cx="24.3934" cy="24.6538" r="10.163" fill="#609D23"/>
</g>
<path d="M10.8574 25.1188H37.929V36.1747C37.929 38.4574 36.0786 40.3078 33.796 40.3078H14.9905C12.7079 40.3078 10.8574 38.4574 10.8574 36.1747V25.1188Z" fill="#7BC82D"/>
<path d="M25.8213 17.8006C24.926 17.3359 23.8605 17.3359 22.9651 17.8006L11.7872 23.6029C11.216 23.8994 10.8574 24.4895 10.8574 25.1332C10.8574 25.8154 11.2597 26.4335 11.8836 26.7097L23.1839 31.7129C23.9541 32.0539 24.8324 32.0539 25.6026 31.7129L36.9029 26.7097C37.5267 26.4335 37.929 25.8154 37.929 25.1332C37.929 24.4895 37.5705 23.8994 36.9992 23.6029L25.8213 17.8006Z" fill="#609D23"/>
<path d="M16.644 14.7861C15.7309 14.7861 14.9907 15.5263 14.9907 16.4394V28.0853L23.1841 31.7129C23.9543 32.0539 24.8326 32.0539 25.6028 31.7129L33.7962 28.0853V16.4394C33.7962 15.5263 33.056 14.7861 32.143 14.7861H16.644Z" fill="white"/>
<path d="M21.0234 25.0178L23.777 27.7713L29.139 22.4093" stroke="#609D23" stroke-width="2" stroke-linecap="round" stroke-linejoin="round"/>
<path d="M54.3332 40.3079C52.3892 40.3079 50.7212 39.9119 49.3292 39.1199C47.9612 38.3279 46.9172 37.2119 46.1972 35.7719C45.4772 34.3079 45.1172 32.5919 45.1172 30.6239C45.1172 28.6319 45.4892 26.9039 46.2332 25.4399C46.9772 23.9519 48.0452 22.7999 49.4372 21.9839C50.8532 21.1679 52.5572 20.7599 54.5492 20.7599C56.0852 20.7599 57.4532 21.0359 58.6532 21.5879C59.8532 22.1399 60.8132 22.9319 61.5332 23.9639C62.2772 24.9959 62.7092 26.2679 62.8292 27.7799H57.8972C57.6812 26.9399 57.2612 26.3279 56.6372 25.9439C56.0372 25.5599 55.3172 25.3679 54.4772 25.3679C53.3972 25.3679 52.5332 25.6319 51.8852 26.1599C51.2612 26.6879 50.8052 27.3599 50.5172 28.1759C50.2532 28.9919 50.1212 29.8079 50.1212 30.6239C50.1212 31.5119 50.2652 32.3519 50.5532 33.1439C50.8412 33.9119 51.2972 34.5479 51.9212 35.0519C52.5692 35.5319 53.4092 35.7719 54.4412 35.7719C55.3052 35.7719 56.0612 35.5799 56.7092 35.1959C57.3572 34.7879 57.7772 34.1639 57.9692 33.3239H63.0092C62.8892 34.8839 62.4212 36.1799 61.6052 37.2119C60.7892 38.2439 59.7452 39.0239 58.4732 39.5519C57.2252 40.0559 55.8452 40.3079 54.3332 40.3079Z" fill="white"/>
<path d="M66.052 40.0559V14.5679H71.092V23.2799C71.644 22.6319 72.256 22.1279 72.928 21.7679C73.624 21.4079 74.32 21.1559 75.016 21.0119C75.736 20.8439 76.396 20.7599 76.996 20.7599C78.772 20.7599 80.164 21.1559 81.172 21.9479C82.18 22.7399 82.9 23.8079 83.332 25.1519C83.764 26.4959 83.98 27.9719 83.98 29.5799V40.0559H78.94V30.2999C78.94 29.7239 78.88 29.1479 78.76 28.5719C78.664 27.9959 78.484 27.4679 78.22 26.9879C77.956 26.4839 77.584 26.0879 77.104 25.7999C76.624 25.4879 75.988 25.3319 75.196 25.3319C74.452 25.3319 73.816 25.4879 73.288 25.7999C72.76 26.1119 72.328 26.5319 71.992 27.0599C71.68 27.5639 71.452 28.1279 71.308 28.7519C71.164 29.3759 71.092 29.9999 71.092 30.6239V40.0559H66.052Z" fill="white"/>
<path d="M96.5249 40.3079C94.5329 40.3079 92.8409 39.9119 91.4489 39.1199C90.0569 38.3279 88.9889 37.2119 88.2449 35.7719C87.5009 34.3079 87.1289 32.6039 87.1289 30.6599C87.1289 28.6919 87.5129 26.9759 88.2809 25.5119C89.0489 24.0239 90.1289 22.8599 91.5209 22.0199C92.9369 21.1799 94.6049 20.7599 96.5249 20.7599C97.9649 20.7599 99.2249 20.9999 100.305 21.4799C101.409 21.9599 102.333 22.6319 103.077 23.4959C103.845 24.3599 104.409 25.3679 104.769 26.5199C105.153 27.6479 105.333 28.8719 105.309 30.1919C105.309 30.5279 105.297 30.8519 105.273 31.1639C105.249 31.4759 105.201 31.7879 105.129 32.0999H92.1329C92.2049 32.8199 92.4089 33.4799 92.7449 34.0799C93.0809 34.6799 93.5489 35.1599 94.1489 35.5199C94.7729 35.8559 95.5409 36.0239 96.4529 36.0239C97.0529 36.0239 97.6049 35.9639 98.1089 35.8439C98.6129 35.6999 99.0449 35.4839 99.4049 35.1959C99.7649 34.9079 100.017 34.5719 100.161 34.1879H105.129C104.817 35.6039 104.229 36.7679 103.365 37.6799C102.525 38.5919 101.505 39.2639 100.305 39.6959C99.1049 40.1039 97.8449 40.3079 96.5249 40.3079ZM92.2409 28.5719H100.485C100.461 27.9239 100.293 27.3239 99.9809 26.7719C99.6929 26.1959 99.2489 25.7399 98.6489 25.4039C98.0729 25.0439 97.3289 24.8639 96.4169 24.8639C95.5049 24.8639 94.7369 25.0439 94.1129 25.4039C93.5129 25.7639 93.0569 26.2319 92.7449 26.8079C92.4569 27.3599 92.2889 27.9479 92.2409 28.5719Z" fill="white"/>
<path d="M117.404 40.3079C115.46 40.3079 113.791 39.9119 112.399 39.1199C111.031 38.3279 109.988 37.2119 109.268 35.7719C108.548 34.3079 108.188 32.5919 108.188 30.6239C108.188 28.6319 108.559 26.9039 109.303 25.4399C110.048 23.9519 111.116 22.7999 112.507 21.9839C113.924 21.1679 115.628 20.7599 117.619 20.7599C119.156 20.7599 120.524 21.0359 121.724 21.5879C122.924 22.1399 123.883 22.9319 124.604 23.9639C125.348 24.9959 125.779 26.2679 125.899 27.7799H120.967C120.751 26.9399 120.332 26.3279 119.708 25.9439C119.108 25.5599 118.387 25.3679 117.548 25.3679C116.467 25.3679 115.604 25.6319 114.955 26.1599C114.331 26.6879 113.876 27.3599 113.588 28.1759C113.324 28.9919 113.191 29.8079 113.191 30.6239C113.191 31.5119 113.335 32.3519 113.623 33.1439C113.911 33.9119 114.368 34.5479 114.992 35.0519C115.64 35.5319 116.479 35.7719 117.511 35.7719C118.375 35.7719 119.132 35.5799 119.78 35.1959C120.428 34.7879 120.847 34.1639 121.039 33.3239H126.079C125.959 34.8839 125.492 36.1799 124.675 37.2119C123.859 38.2439 122.816 39.0239 121.544 39.5519C120.296 40.0559 118.916 40.3079 117.404 40.3079Z" fill="white"/>
<path d="M129.122 40.0559V14.5679H134.162V28.3559H136.646L141.29 21.0839H146.942L140.894 30.1199L147.086 39.5101L147.446 40.0559H141.614L141.254 39.5101L136.862 32.8559H134.162V40.0559H129.122Z" fill="white"/>
<path d="M160.69 48.8038C159.226 48.8038 157.798 48.6118 156.406 48.2278C155.014 47.8438 153.706 47.1958 152.482 46.2838L154.174 42.2518C154.942 42.8278 155.818 43.2838 156.802 43.6198C157.786 43.9798 158.878 44.1598 160.078 44.1598C161.926 44.1598 163.294 43.7278 164.182 42.8638C165.094 41.9998 165.55 40.7518 165.55 39.1198V38.1118C165.142 38.6638 164.626 39.1078 164.002 39.4438C163.402 39.7558 162.754 39.9838 162.058 40.1278C161.362 40.2718 160.666 40.3438 159.97 40.3438C158.146 40.3438 156.682 39.9598 155.578 39.1918C154.474 38.4238 153.67 37.3798 153.166 36.0598C152.686 34.7158 152.446 33.1918 152.446 31.4878V21.0838H157.486V30.4438C157.486 31.0678 157.522 31.6918 157.594 32.3158C157.666 32.9398 157.834 33.5158 158.098 34.0438C158.362 34.5718 158.758 35.0038 159.286 35.3398C159.814 35.6518 160.522 35.8078 161.41 35.8078C162.562 35.8078 163.426 35.5318 164.002 34.9798C164.578 34.4038 164.962 33.6838 165.154 32.8198C165.37 31.9558 165.478 31.0558 165.478 30.1198V21.0838H170.518V37.3198C170.518 39.0478 170.35 40.6198 170.014 42.0358C169.702 43.4518 169.162 44.6638 168.394 45.6718C167.65 46.6798 166.642 47.4478 165.37 47.9758C164.122 48.5278 162.562 48.8038 160.69 48.8038Z" fill="#7BC82D"/>
<path d="M183.342 40.3078C181.422 40.3078 179.742 39.9238 178.302 39.1558C176.862 38.3638 175.746 37.2478 174.954 35.8078C174.162 34.3438 173.766 32.6158 173.766 30.6238C173.766 28.5838 174.162 26.8318 174.954 25.3678C175.77 23.8798 176.898 22.7398 178.338 21.9478C179.778 21.1558 181.434 20.7598 183.306 20.7598C185.226 20.7598 186.894 21.1678 188.31 21.9838C189.726 22.7998 190.83 23.9398 191.622 25.4038C192.414 26.8678 192.81 28.6198 192.81 30.6598C192.81 32.6518 192.414 34.3798 191.622 35.8438C190.854 37.2838 189.762 38.3878 188.346 39.1558C186.954 39.9238 185.286 40.3078 183.342 40.3078ZM183.27 35.6998C184.374 35.6998 185.262 35.4598 185.934 34.9798C186.606 34.4998 187.086 33.8758 187.374 33.1078C187.686 32.3158 187.842 31.4878 187.842 30.6238C187.842 29.7598 187.686 28.9318 187.374 28.1398C187.086 27.3478 186.606 26.6998 185.934 26.1958C185.286 25.6678 184.398 25.4038 183.27 25.4038C182.19 25.4038 181.314 25.6678 180.642 26.1958C179.97 26.6998 179.478 27.3478 179.166 28.1398C178.878 28.9318 178.734 29.7598 178.734 30.6238C178.734 31.5118 178.878 32.3398 179.166 33.1078C179.478 33.8758 179.97 34.4998 180.642 34.9798C181.314 35.4598 182.19 35.6998 183.27 35.6998Z" fill="#7BC82D"/>
<path d="M204.641 40.3078C201.857 40.3078 199.709 39.5998 198.197 38.1838C196.709 36.7438 195.965 34.5838 195.965 31.7038V21.0838H201.005V31.3438C201.005 32.2078 201.125 32.9758 201.365 33.6478C201.629 34.2958 202.025 34.8118 202.553 35.1958C203.105 35.5798 203.813 35.7718 204.677 35.7718C205.613 35.7718 206.333 35.5678 206.837 35.1598C207.341 34.7518 207.689 34.2118 207.881 33.5398C208.073 32.8438 208.169 32.1118 208.169 31.3438V21.0838H213.173V31.7038C213.173 34.7038 212.417 36.8878 210.905 38.2558C209.417 39.6238 207.329 40.3078 204.641 40.3078Z" fill="#7BC82D"/>
<path d="M217.095 40.0558V21.0838H221.631L221.955 23.3518C222.435 22.6318 222.975 22.0918 223.575 21.7318C224.175 21.3478 224.799 21.0958 225.447 20.9758C226.095 20.8318 226.755 20.7598 227.427 20.7598C227.739 20.7598 228.027 20.7718 228.291 20.7958C228.555 20.7958 228.747 20.7958 228.867 20.7958V25.6558H227.679C226.551 25.6558 225.567 25.8478 224.727 26.2318C223.887 26.6158 223.239 27.2158 222.783 28.0318C222.351 28.8478 222.135 29.8918 222.135 31.1638V40.0558H217.095Z" fill="#7BC82D"/>
<path d="M233.868 40.0558V21.0838H238.404L238.836 23.2078C239.316 22.5358 239.844 22.0318 240.42 21.6958C241.02 21.3358 241.62 21.0958 242.22 20.9758C242.82 20.8558 243.372 20.7958 243.876 20.7958C245.004 20.7958 246 21.0118 246.864 21.4438C247.728 21.8758 248.424 22.5718 248.952 23.5318C249.456 22.8358 250.008 22.2958 250.608 21.9118C251.208 21.5038 251.844 21.2158 252.516 21.0478C253.188 20.8798 253.872 20.7958 254.568 20.7958C256.032 20.7958 257.208 21.1078 258.096 21.7318C259.008 22.3318 259.668 23.1718 260.076 24.2518C260.508 25.3318 260.724 26.5918 260.724 28.0318V40.0558H255.684V29.3638C255.684 28.9318 255.66 28.4878 255.612 28.0318C255.564 27.5758 255.444 27.1438 255.252 26.7358C255.084 26.3278 254.82 25.9918 254.46 25.7278C254.124 25.4638 253.644 25.3318 253.02 25.3318C252.42 25.3318 251.916 25.4638 251.508 25.7278C251.1 25.9918 250.776 26.3518 250.536 26.8078C250.296 27.2398 250.116 27.7198 249.996 28.2478C249.9 28.7518 249.852 29.2678 249.852 29.7958V40.0558H244.812V29.3278C244.812 28.9198 244.788 28.4878 244.74 28.0318C244.692 27.5758 244.584 27.1438 244.416 26.7358C244.248 26.3278 243.972 25.9918 243.588 25.7278C243.228 25.4638 242.724 25.3318 242.076 25.3318C241.188 25.3318 240.504 25.5958 240.024 26.1238C239.568 26.6278 239.268 27.2398 239.124 27.9598C238.98 28.6558 238.908 29.3038 238.908 29.9038V40.0558H233.868Z" fill="white"/>
<path d="M270.536 40.3078C269.672 40.3078 268.832 40.1998 268.016 39.9838C267.224 39.7438 266.516 39.3838 265.892 38.9038C265.268 38.4238 264.776 37.8238 264.416 37.1038C264.056 36.3838 263.876 35.5438 263.876 34.5838C263.876 33.2878 264.14 32.2558 264.668 31.4878C265.196 30.6958 265.904 30.0958 266.792 29.6878C267.68 29.2798 268.7 29.0038 269.852 28.8598C271.028 28.7158 272.24 28.6438 273.488 28.6438H276.224C276.224 27.9478 276.092 27.3358 275.828 26.8078C275.588 26.2558 275.216 25.8358 274.712 25.5478C274.208 25.2358 273.56 25.0798 272.768 25.0798C272.264 25.0798 271.772 25.1518 271.292 25.2958C270.836 25.4158 270.452 25.5958 270.14 25.8358C269.828 26.0758 269.624 26.3878 269.528 26.7718H264.416C264.56 25.7158 264.896 24.8158 265.424 24.0718C265.952 23.3038 266.612 22.6798 267.404 22.1998C268.196 21.7198 269.06 21.3718 269.996 21.1558C270.956 20.9158 271.94 20.7958 272.948 20.7958C275.708 20.7958 277.748 21.5878 279.068 23.1718C280.388 24.7318 281.048 26.9518 281.048 29.8318V40.0558H276.512L276.44 37.6078C275.84 38.4478 275.156 39.0598 274.388 39.4438C273.644 39.8278 272.924 40.0678 272.228 40.1638C271.532 40.2598 270.968 40.3078 270.536 40.3078ZM271.688 36.3118C272.528 36.3118 273.296 36.1438 273.992 35.8078C274.688 35.4718 275.24 35.0158 275.648 34.4398C276.056 33.8638 276.26 33.2158 276.26 32.4958V32.0278H272.804C272.3 32.0278 271.808 32.0518 271.328 32.0998C270.872 32.1478 270.452 32.2438 270.068 32.3878C269.708 32.5078 269.42 32.7118 269.204 32.9998C268.988 33.2878 268.88 33.6718 268.88 34.1518C268.88 34.6318 269 35.0398 269.24 35.3758C269.504 35.6878 269.852 35.9278 270.284 36.0958C270.716 36.2398 271.184 36.3118 271.688 36.3118Z" fill="white"/>
<path d="M284.985 40.0558V21.0838H290.025V40.0558H284.985ZM287.505 19.1758C286.569 19.1758 285.813 18.8998 285.237 18.3478C284.661 17.7718 284.373 17.0398 284.373 16.1518C284.373 15.2158 284.673 14.4598 285.273 13.8838C285.873 13.3078 286.629 13.0198 287.541 13.0198C288.381 13.0198 289.101 13.3078 289.701 13.8838C290.325 14.4358 290.637 15.1798 290.637 16.1158C290.637 17.0278 290.337 17.7718 289.737 18.3478C289.161 18.8998 288.417 19.1758 287.505 19.1758Z" fill="white"/>
<path d="M294.02 40.0558V14.5678H299.06V40.0558H294.02Z" fill="white"/>
<defs>
<filter id="filter0_f_43_29" x="0.0304689" y="0.290845" width="48.7262" height="48.7259" filterUnits="userSpaceOnUse" color-interpolation-filters="sRGB">
<feFlood flood-opacity="0" result="BackgroundImageFix"/>
<feBlend mode="normal" in="SourceGraphic" in2="BackgroundImageFix" result="shape"/>
<feGaussianBlur stdDeviation="7.1" result="effect1_foregroundBlur_43_29"/>
</filter>
</defs>
</svg>
