<svg width="2670" height="800" viewBox="0 0 2670 800" fill="none" xmlns="http://www.w3.org/2000/svg">
<path d="M734.637 445.677C732.897 443.182 732.967 439.867 734.777 437.406L822.067 319.278C825.557 314.562 822.177 307.862 816.297 307.862H738.297C735.907 307.862 733.677 309.059 732.347 311.041L667.542 407.395C666.209 409.378 663.987 410.574 661.594 410.574H611.076C607.145 410.574 603.932 407.361 603.932 403.43V222.514C603.932 218.549 600.719 215.336 596.754 215.336H530.171C526.206 215.336 522.993 218.549 522.993 222.514V577.374C522.993 581.305 526.206 584.518 530.171 584.518H596.754C600.719 584.518 603.932 581.305 603.932 577.374V491.718C603.932 487.788 607.145 484.575 611.076 484.575H662.141C664.534 484.575 666.756 485.737 668.089 487.719L731.257 581.373C732.587 583.322 734.807 584.518 737.197 584.518H815.337C821.077 584.518 824.497 578.092 821.287 573.341L734.637 445.677ZM913.027 463.554H1118.76C1122.42 463.554 1125.49 460.819 1125.94 457.196C1126.69 450.873 1127.3 445.13 1127.3 437.816C1127.3 353.698 1068.62 307.623 980.287 307.623C891.967 307.623 830.577 361.765 830.577 447.455C830.577 542.818 891.967 586.774 981.897 586.774C1071.83 586.774 1124.64 546.031 1124.64 487.651C1124.64 484.404 1121.97 481.772 1118.73 481.772H1049.2C1046.23 481.772 1043.84 484.164 1043.84 487.104C1043.84 510.141 1027.16 522.481 979.237 522.481C931.307 522.481 910.187 506.963 906.057 471.108C905.577 467.006 908.887 463.554 913.027 463.554ZM907.727 413.274C913.707 383.948 934.557 370.31 978.687 370.31C1022.82 370.31 1044.25 383.606 1048.96 413.582C1049.58 417.684 1046.26 421.204 1042.13 421.204H914.527C910.257 421.204 906.877 417.479 907.727 413.274ZM1451.92 307.623H1379.66C1376.75 307.623 1374.12 309.4 1373.03 312.101L1324.7 430.843L1304.39 492.607C1303.91 494.145 1302.48 495.136 1300.91 495.136C1299.33 495.136 1297.93 494.145 1297.42 492.675L1276.13 431.39L1222.05 311.861C1220.89 309.298 1218.36 307.623 1215.52 307.623H1141.76C1136.5 307.623 1133.01 313.126 1135.27 317.877L1258.32 576.486C1259.24 578.365 1259.31 580.587 1258.28 582.399C1252.92 592.243 1244.3 596.754 1226.5 596.754H1145.39C1141.42 596.754 1138.21 599.933 1138.21 603.898V663.064C1138.21 667.029 1141.42 670.242 1145.39 670.242H1204.83C1271.37 670.242 1306.75 654.553 1332.08 597.814L1458.44 317.74C1460.56 312.989 1457.11 307.623 1451.92 307.623ZM2037.22 307.623H1970.23C1966.91 307.623 1963.97 309.913 1963.18 313.16L1933.35 434.193L1921.93 517.627C1921.69 519.199 1920.32 520.396 1918.72 520.396C1917.25 520.396 1915.91 519.37 1915.61 517.9L1894.65 425.887L1856.03 312.579C1855.04 309.605 1852.27 307.623 1849.12 307.623H1755.78C1752.67 307.623 1749.93 309.605 1748.91 312.545L1709.77 425.887L1688.82 517.9C1688.48 519.37 1687.18 520.396 1685.71 520.396C1684.07 520.396 1682.73 519.199 1682.5 517.593L1671.59 434.193L1641.24 313.16C1640.45 309.913 1637.55 307.623 1634.2 307.623H1566.01C1561.26 307.623 1557.77 312.169 1559 316.783L1628.76 579.083C1629.62 582.296 1632.49 584.484 1635.81 584.484H1725.56C1728.64 584.484 1731.41 582.535 1732.43 579.63L1777.48 451.317L1797.14 377.898C1797.58 376.223 1799.12 375.061 1800.86 375.061C1802.61 375.061 1804.11 376.223 1804.55 377.932L1823.69 451.317L1868.23 579.596C1869.26 582.535 1872.03 584.484 1875.1 584.484H1964.93C1968.18 584.484 1971.05 582.296 1971.93 579.152L2044.23 316.852C2045.53 312.203 2042.04 307.623 2037.22 307.623ZM2200.4 307.623C2116.86 307.623 2062.89 349.972 2058.41 412.078C2058.14 416.009 2061.25 419.358 2065.21 419.358H2131.66C2135.15 419.358 2137.95 416.658 2138.29 413.172C2140.72 387.707 2157.53 378.616 2194.55 378.616C2236.87 378.616 2252.21 388.289 2252.21 423.221V426.981C2252.21 430.672 2249.45 433.714 2245.79 434.124L2138.53 445.267C2081.93 451.18 2052.87 475.927 2052.87 515.713C2052.87 560.865 2087.23 587.731 2144.34 587.731C2201.46 587.731 2239.02 563.189 2251.67 522.275C2252.01 521.25 2252.93 520.532 2254.03 520.532C2255.36 520.532 2256.45 521.626 2256.45 522.959V577.34C2256.45 581.271 2259.66 584.484 2263.6 584.484H2323.31C2327.24 584.484 2330.45 581.305 2330.45 577.34V424.315C2330.45 353.869 2288.68 307.623 2200.4 307.623ZM2251.19 488.129C2245.38 519.78 2216.77 530.752 2167.04 530.752C2143.76 530.752 2132.69 524.839 2132.69 510.312C2132.69 497.426 2141.13 492.06 2160.17 490.419L2243.7 480.678C2248.15 480.165 2251.97 483.754 2251.19 488.129ZM2662.48 307.623H2590.22C2587.32 307.623 2584.69 309.4 2583.59 312.101L2535.26 430.843L2514.96 492.607C2514.48 494.145 2513.04 495.136 2511.47 495.136C2509.9 495.136 2508.5 494.145 2507.99 492.675L2486.69 431.39L2432.62 311.861C2431.46 309.298 2428.93 307.623 2426.09 307.623H2352.29C2347.06 307.623 2343.58 313.126 2345.83 317.877L2468.88 576.486C2469.81 578.365 2469.87 580.587 2468.85 582.399C2463.48 592.243 2454.9 596.754 2437.06 596.754H2369.01C2365.08 596.754 2361.86 599.933 2361.86 603.898V663.064C2361.86 667.029 2365.08 670.242 2369.01 670.242H2415.42C2481.94 670.242 2517.28 654.553 2542.64 597.814L2669.01 317.74C2671.13 312.989 2667.68 307.623 2662.48 307.623ZM399.91 30.762C399.91 31.309 399.841 141.096 399.807 199.886C399.807 209.594 394.953 218.652 386.853 224.052L210.721 341.461C200.536 348.229 187.069 348.127 177.361 340.675C144.309 315.382 123.015 275.562 123.015 230.717C123.015 180.267 150.017 136.106 190.384 111.906L349.596 7.04102C356.193 2.52902 361.73 0 369.147 0C386.135 0 399.91 13.775 399.91 30.762ZM399.875 584.484L399.91 769.06C399.91 786.05 386.135 799.82 369.147 799.82C362.14 799.82 355.646 797.46 350.485 793.5L30.557 576.144C12.27 565.479 0 545.655 0 522.959V338.385C0 321.398 13.774 307.623 30.762 307.623C38.282 307.623 45.186 310.323 50.518 314.835L369.387 531.367C387.639 542.032 399.875 561.822 399.875 584.484Z" fill="url(#paint0_linear_1896_12725)"/>
<defs>
<linearGradient id="paint0_linear_1896_12725" x1="0" y1="0" x2="439.775" y2="1467.88" gradientUnits="userSpaceOnUse">
<stop stop-color="#5C7DFA"/>
<stop offset="1" stop-color="#7180FB"/>
</linearGradient>
</defs>
</svg>
