<svg width="201" height="67" viewBox="0 0 201 67" fill="none" xmlns="http://www.w3.org/2000/svg">
<path d="M54.6358 32.3257V11.4742H60.2021L65.8273 21.5466L71.3641 11.4742H76.7537V32.3257H72.5127V17.07L66.593 27.6724H64.8554L58.8474 17.07V32.3257H54.6358ZM90.0764 32.5613C87.9363 32.5613 86.1103 32.1293 84.5985 31.2654C83.1063 30.3819 81.9675 29.145 81.1822 27.5546C80.4164 25.9642 80.0336 24.1088 80.0336 21.9883C80.0336 19.8286 80.4263 17.9437 81.2116 16.3337C82.0166 14.7237 83.1652 13.4769 84.6574 12.5934C86.1496 11.6902 87.9461 11.2386 90.047 11.2386C91.6373 11.2386 93.0608 11.5135 94.3174 12.0633C95.574 12.5934 96.5851 13.3886 97.3509 14.4488C98.1362 15.4894 98.6271 16.7755 98.8234 18.3069H94.7592C94.5039 17.3448 93.9836 16.5889 93.1982 16.0392C92.4325 15.4698 91.4115 15.1851 90.1353 15.1851C88.7217 15.1851 87.5927 15.5091 86.7484 16.157C85.9238 16.7853 85.325 17.6099 84.9519 18.6309C84.5789 19.6322 84.3923 20.6925 84.3923 21.8116C84.3923 22.97 84.5887 24.0695 84.9814 25.1101C85.3741 26.1508 85.9925 26.995 86.8368 27.6429C87.7007 28.2909 88.8297 28.6148 90.2237 28.6148C91.0483 28.6148 91.7846 28.497 92.4325 28.2614C93.0804 28.0062 93.6106 27.6429 94.0229 27.1717C94.4548 26.7005 94.7493 26.1409 94.9064 25.493H99.1179C98.9412 27.0048 98.4307 28.2909 97.5865 29.3511C96.7422 30.4114 95.6721 31.2164 94.3763 31.7661C93.0804 32.2962 91.6472 32.5613 90.0764 32.5613ZM102.379 32.3257V11.4742H106.59V20.1034H115.603V11.4742H119.844V32.3257H115.603V23.991H106.59V32.3257H102.379Z" fill="#FFFFFF"/>
<path d="M122.676 32.3257V28.8504L128.448 24.0499C128.86 23.6965 129.332 23.3038 129.862 22.8719C130.412 22.4203 130.932 21.9392 131.423 21.4287C131.933 20.9183 132.345 20.3783 132.66 19.8089C132.993 19.2395 133.16 18.6505 133.16 18.0419C133.16 17.1976 132.895 16.5104 132.365 15.9803C131.855 15.4502 131.099 15.1851 130.097 15.1851C129.155 15.1851 128.409 15.4011 127.859 15.833C127.329 16.2453 126.995 16.7755 126.858 17.4234H122.793C122.911 16.0294 123.324 14.8808 124.03 13.9776C124.757 13.0548 125.67 12.3676 126.769 11.916C127.869 11.4644 129.027 11.2386 130.245 11.2386C131.56 11.2386 132.758 11.4841 133.838 11.9749C134.918 12.4658 135.772 13.1824 136.4 14.1249C137.028 15.0477 137.342 16.1963 137.342 17.5706C137.342 18.7487 137.117 19.8187 136.665 20.7808C136.233 21.7233 135.634 22.6068 134.868 23.4314C134.103 24.2364 133.239 25.012 132.277 25.7581L128.978 28.4381H137.313V32.3257H122.676ZM149.447 32.3257V28.497H138.874V25.2869L148.564 11.4742H153.659V24.6684H156.015V28.497H153.659V32.3257H149.447ZM143.704 24.6684H149.447V16.1275L143.704 24.6684Z" fill="#5398FF"/>
<path d="M3.20459 30.8705V19.593L15.9689 1.59229M15.9689 1.59229L45.9572 11.1348V30.8705H41.395M15.9689 1.59229V8.53231M15.9689 8.53231V30.8705H25.0924M15.9689 8.53231L25.0924 11.1348M41.395 30.8705V16.1156L34.0161 13.8187M41.395 30.8705H34.0161M25.0924 11.1348V30.8705M25.0924 11.1348L34.0161 13.8187M25.0924 30.8705H34.0161M34.0161 13.8187V30.8705" stroke="#5398FF" stroke-width="2.27825"/>
<path d="M0.744141 31.0874H49.0331" stroke="#5398FF" stroke-width="2.27825"/>
<path d="M54.6169 49.8484V39.9504H56.4369L59.4609 45.3964L62.4429 39.9504H64.2209V49.8484H63.0029V41.1824L59.7129 47.2724H59.1529L55.8349 41.1824V49.8484H54.6169ZM69.6018 49.9324C68.8272 49.9324 68.1785 49.7737 67.6558 49.4564C67.1332 49.1297 66.7412 48.6817 66.4798 48.1124C66.2278 47.5431 66.1018 46.8944 66.1018 46.1664C66.1018 45.4291 66.2278 44.7804 66.4798 44.2204C66.7412 43.6511 67.1332 43.2031 67.6558 42.8764C68.1785 42.5497 68.8365 42.3864 69.6298 42.3864C70.4045 42.3864 71.0485 42.5497 71.5618 42.8764C72.0845 43.2031 72.4718 43.6511 72.7238 44.2204C72.9852 44.7804 73.1158 45.4291 73.1158 46.1664C73.1158 46.8944 72.9852 47.5431 72.7238 48.1124C72.4625 48.6817 72.0705 49.1297 71.5478 49.4564C71.0345 49.7737 70.3858 49.9324 69.6018 49.9324ZM69.6018 48.8824C70.1432 48.8824 70.5818 48.7611 70.9178 48.5184C71.2632 48.2757 71.5152 47.9491 71.6738 47.5384C71.8418 47.1277 71.9258 46.6704 71.9258 46.1664C71.9258 45.6624 71.8418 45.2051 71.6738 44.7944C71.5152 44.3837 71.2632 44.0571 70.9178 43.8144C70.5818 43.5717 70.1432 43.4504 69.6018 43.4504C69.0698 43.4504 68.6312 43.5717 68.2858 43.8144C67.9498 44.0571 67.6978 44.3837 67.5298 44.7944C67.3712 45.2051 67.2918 45.6624 67.2918 46.1664C67.2918 46.6704 67.3712 47.1277 67.5298 47.5384C67.6978 47.9491 67.9498 48.2757 68.2858 48.5184C68.6312 48.7611 69.0698 48.8824 69.6018 48.8824ZM77.858 49.9324C77.0834 49.9324 76.4394 49.7737 75.926 49.4564C75.422 49.1297 75.044 48.6817 74.792 48.1124C74.5494 47.5431 74.428 46.8991 74.428 46.1804C74.428 45.4804 74.554 44.8457 74.806 44.2764C75.0674 43.6977 75.4594 43.2404 75.982 42.9044C76.514 42.5591 77.186 42.3864 77.998 42.3864C78.502 42.3864 78.95 42.4704 79.342 42.6384C79.7434 42.8064 80.0747 43.0537 80.336 43.3804C80.5974 43.6977 80.7794 44.0991 80.882 44.5844H79.664C79.524 44.1737 79.3 43.8844 78.992 43.7164C78.6934 43.5391 78.3387 43.4504 77.928 43.4504C77.368 43.4504 76.92 43.5811 76.584 43.8424C76.248 44.1037 76.0007 44.4444 75.842 44.8644C75.6927 45.2751 75.618 45.7137 75.618 46.1804C75.618 46.6657 75.6974 47.1137 75.856 47.5244C76.0147 47.9351 76.262 48.2664 76.598 48.5184C76.934 48.7611 77.368 48.8824 77.9 48.8824C78.292 48.8824 78.6607 48.7984 79.006 48.6304C79.3607 48.4624 79.594 48.1637 79.706 47.7344H80.938C80.8447 48.2384 80.644 48.6537 80.336 48.9804C80.0374 49.3071 79.6687 49.5497 79.23 49.7084C78.8007 49.8577 78.3434 49.9324 77.858 49.9324ZM82.4463 49.8484V42.4704H83.6363V45.6484H84.9243L87.1083 42.4704H88.4663L86.0023 45.9844L88.6763 49.8484H87.2763L85.0643 46.6844H83.6363V49.8484H82.4463ZM92.7893 49.9324C92.0147 49.9324 91.366 49.7737 90.8433 49.4564C90.3207 49.1297 89.9287 48.6817 89.6673 48.1124C89.4153 47.5431 89.2893 46.8944 89.2893 46.1664C89.2893 45.4291 89.4153 44.7804 89.6673 44.2204C89.9287 43.6511 90.3207 43.2031 90.8433 42.8764C91.366 42.5497 92.024 42.3864 92.8173 42.3864C93.592 42.3864 94.236 42.5497 94.7493 42.8764C95.272 43.2031 95.6593 43.6511 95.9113 44.2204C96.1727 44.7804 96.3033 45.4291 96.3033 46.1664C96.3033 46.8944 96.1727 47.5431 95.9113 48.1124C95.65 48.6817 95.258 49.1297 94.7353 49.4564C94.222 49.7737 93.5733 49.9324 92.7893 49.9324ZM92.7893 48.8824C93.3307 48.8824 93.7693 48.7611 94.1053 48.5184C94.4507 48.2757 94.7027 47.9491 94.8613 47.5384C95.0293 47.1277 95.1133 46.6704 95.1133 46.1664C95.1133 45.6624 95.0293 45.2051 94.8613 44.7944C94.7027 44.3837 94.4507 44.0571 94.1053 43.8144C93.7693 43.5717 93.3307 43.4504 92.7893 43.4504C92.2573 43.4504 91.8187 43.5717 91.4733 43.8144C91.1373 44.0571 90.8853 44.3837 90.7173 44.7944C90.5587 45.2051 90.4793 45.6624 90.4793 46.1664C90.4793 46.6704 90.5587 47.1277 90.7173 47.5384C90.8853 47.9491 91.1373 48.2757 91.4733 48.5184C91.8187 48.7611 92.2573 48.8824 92.7893 48.8824ZM97.8955 49.8484V42.4704H100.752C101.078 42.4704 101.4 42.4937 101.718 42.5404C102.044 42.5777 102.338 42.6617 102.6 42.7924C102.87 42.9137 103.085 43.0957 103.244 43.3384C103.412 43.5811 103.496 43.9031 103.496 44.3044C103.496 44.5471 103.458 44.7711 103.384 44.9764C103.309 45.1724 103.197 45.3451 103.048 45.4944C102.908 45.6437 102.726 45.7744 102.502 45.8864C103.006 45.9984 103.37 46.2177 103.594 46.5444C103.818 46.8711 103.93 47.2444 103.93 47.6644C103.93 48.0377 103.86 48.3644 103.72 48.6444C103.589 48.9151 103.402 49.1391 103.16 49.3164C102.926 49.4937 102.651 49.6291 102.334 49.7224C102.026 49.8064 101.694 49.8484 101.34 49.8484H97.8955ZM99.1135 48.8124H101.06C101.349 48.8124 101.62 48.7844 101.872 48.7284C102.124 48.6724 102.329 48.5697 102.488 48.4204C102.646 48.2617 102.726 48.0377 102.726 47.7484C102.726 47.4497 102.656 47.2257 102.516 47.0764C102.385 46.9177 102.212 46.8104 101.998 46.7544C101.792 46.6891 101.568 46.6517 101.326 46.6424C101.083 46.6331 100.854 46.6284 100.64 46.6284H99.1135V48.8124ZM99.1135 45.6204H100.136C100.322 45.6204 100.537 45.6111 100.78 45.5924C101.032 45.5737 101.274 45.5317 101.508 45.4664C101.75 45.3917 101.946 45.2797 102.096 45.1304C102.254 44.9811 102.334 44.7757 102.334 44.5144C102.334 44.1691 102.236 43.9311 102.04 43.8004C101.853 43.6604 101.629 43.5811 101.368 43.5624C101.106 43.5344 100.864 43.5204 100.64 43.5204H99.1135V45.6204ZM108.702 49.9324C107.927 49.9324 107.283 49.7737 106.77 49.4564C106.266 49.1297 105.888 48.6817 105.636 48.1124C105.393 47.5431 105.272 46.8991 105.272 46.1804C105.272 45.4804 105.398 44.8457 105.65 44.2764C105.911 43.6977 106.303 43.2404 106.826 42.9044C107.358 42.5591 108.03 42.3864 108.842 42.3864C109.346 42.3864 109.794 42.4704 110.186 42.6384C110.587 42.8064 110.918 43.0537 111.18 43.3804C111.441 43.6977 111.623 44.0991 111.726 44.5844H110.508C110.368 44.1737 110.144 43.8844 109.836 43.7164C109.537 43.5391 109.182 43.4504 108.772 43.4504C108.212 43.4504 107.764 43.5811 107.428 43.8424C107.092 44.1037 106.844 44.4444 106.686 44.8644C106.536 45.2751 106.462 45.7137 106.462 46.1804C106.462 46.6657 106.541 47.1137 106.7 47.5244C106.858 47.9351 107.106 48.2664 107.442 48.5184C107.778 48.7611 108.212 48.8824 108.744 48.8824C109.136 48.8824 109.504 48.7984 109.85 48.6304C110.204 48.4624 110.438 48.1637 110.55 47.7344H111.782C111.688 48.2384 111.488 48.6537 111.18 48.9804C110.881 49.3071 110.512 49.5497 110.074 49.7084C109.644 49.8577 109.187 49.9324 108.702 49.9324ZM113.29 49.8484V42.4704H114.48V45.6484H115.768L117.952 42.4704H119.31L116.846 45.9844L119.52 49.8484H118.12L115.908 46.6844H114.48V49.8484H113.29ZM122.779 49.9324C122.443 49.9324 122.116 49.8904 121.799 49.8064C121.491 49.7131 121.211 49.5777 120.959 49.4004C120.716 49.2137 120.52 48.9851 120.371 48.7144C120.231 48.4344 120.161 48.1124 120.161 47.7484C120.161 47.3284 120.236 46.9737 120.385 46.6844C120.544 46.3951 120.754 46.1664 121.015 45.9984C121.276 45.8304 121.58 45.7091 121.925 45.6344C122.27 45.5597 122.63 45.5224 123.003 45.5224H125.173C125.173 45.1024 125.112 44.7384 124.991 44.4304C124.879 44.1224 124.692 43.8844 124.431 43.7164C124.17 43.5391 123.824 43.4504 123.395 43.4504C123.134 43.4504 122.891 43.4784 122.667 43.5344C122.443 43.5904 122.252 43.6791 122.093 43.8004C121.934 43.9217 121.818 44.0851 121.743 44.2904H120.469C120.534 43.9544 120.66 43.6697 120.847 43.4364C121.043 43.1937 121.276 42.9977 121.547 42.8484C121.827 42.6897 122.126 42.5731 122.443 42.4984C122.76 42.4237 123.078 42.3864 123.395 42.3864C124.104 42.3864 124.674 42.5311 125.103 42.8204C125.532 43.1004 125.845 43.5017 126.041 44.0244C126.237 44.5377 126.335 45.1491 126.335 45.8584V49.8484H125.341L125.271 48.9104C125.066 49.1904 124.818 49.4051 124.529 49.5544C124.24 49.7037 123.941 49.8017 123.633 49.8484C123.334 49.9044 123.05 49.9324 122.779 49.9324ZM122.891 48.8824C123.358 48.8824 123.759 48.8077 124.095 48.6584C124.44 48.4997 124.706 48.2711 124.893 47.9724C125.08 47.6737 125.173 47.3097 125.173 46.8804V46.5164H123.871C123.563 46.5164 123.26 46.5211 122.961 46.5304C122.662 46.5397 122.392 46.5771 122.149 46.6424C121.906 46.7077 121.71 46.8197 121.561 46.9784C121.421 47.1371 121.351 47.3657 121.351 47.6644C121.351 47.9444 121.421 48.1731 121.561 48.3504C121.71 48.5277 121.902 48.6631 122.135 48.7564C122.378 48.8404 122.63 48.8824 122.891 48.8824ZM127.717 49.8484L129.635 46.9364C129.103 46.7871 128.683 46.5444 128.375 46.2084C128.067 45.8631 127.913 45.4057 127.913 44.8364C127.913 44.3884 127.978 44.0151 128.109 43.7164C128.239 43.4084 128.431 43.1657 128.683 42.9884C128.935 42.8017 129.238 42.6711 129.593 42.5964C129.947 42.5124 130.353 42.4704 130.811 42.4704H133.779V49.8484H132.589V47.1184H130.895L129.103 49.8484H127.717ZM131.707 46.0824H132.589V43.5204H131.007C130.727 43.5204 130.47 43.5344 130.237 43.5624C130.003 43.5904 129.803 43.6511 129.635 43.7444C129.476 43.8284 129.35 43.9544 129.257 44.1224C129.163 44.2811 129.117 44.5004 129.117 44.7804C129.117 45.0884 129.191 45.3311 129.341 45.5084C129.499 45.6857 129.7 45.8164 129.943 45.9004C130.195 45.9751 130.475 46.0264 130.783 46.0544C131.091 46.0731 131.399 46.0824 131.707 46.0824ZM142.581 49.9324C141.806 49.9324 141.162 49.7737 140.649 49.4564C140.145 49.1297 139.767 48.6817 139.515 48.1124C139.272 47.5431 139.151 46.8991 139.151 46.1804C139.151 45.4804 139.277 44.8457 139.529 44.2764C139.79 43.6977 140.182 43.2404 140.705 42.9044C141.237 42.5591 141.909 42.3864 142.721 42.3864C143.225 42.3864 143.673 42.4704 144.065 42.6384C144.466 42.8064 144.797 43.0537 145.059 43.3804C145.32 43.6977 145.502 44.0991 145.605 44.5844H144.387C144.247 44.1737 144.023 43.8844 143.715 43.7164C143.416 43.5391 143.061 43.4504 142.651 43.4504C142.091 43.4504 141.643 43.5811 141.307 43.8424C140.971 44.1037 140.723 44.4444 140.565 44.8644C140.415 45.2751 140.341 45.7137 140.341 46.1804C140.341 46.6657 140.42 47.1137 140.579 47.5244C140.737 47.9351 140.985 48.2664 141.321 48.5184C141.657 48.7611 142.091 48.8824 142.623 48.8824C143.015 48.8824 143.383 48.7984 143.729 48.6304C144.083 48.4624 144.317 48.1637 144.429 47.7344H145.661C145.567 48.2384 145.367 48.6537 145.059 48.9804C144.76 49.3071 144.391 49.5497 143.953 49.7084C143.523 49.8577 143.066 49.9324 142.581 49.9324ZM146.429 49.8624V48.8264C146.615 48.8264 146.783 48.7891 146.933 48.7144C147.082 48.6304 147.213 48.5091 147.325 48.3504C147.455 48.1637 147.558 47.8931 147.633 47.5384C147.707 47.1837 147.759 46.8057 147.787 46.4044C147.824 45.9564 147.852 45.5177 147.871 45.0884C147.889 44.6497 147.903 44.2157 147.913 43.7864C147.931 43.3571 147.941 42.9184 147.941 42.4704H153.065V49.8484H151.875V43.5204H149.103C149.093 43.8377 149.079 44.1597 149.061 44.4864C149.051 44.8037 149.037 45.1257 149.019 45.4524C149.009 45.7697 148.995 46.0917 148.977 46.4184C148.967 46.7917 148.93 47.2117 148.865 47.6784C148.799 48.1451 148.659 48.5697 148.445 48.9524C148.239 49.3164 147.987 49.5591 147.689 49.6804C147.399 49.8017 146.979 49.8624 146.429 49.8624ZM155.173 53.0124V51.8784C155.63 51.8784 155.994 51.8131 156.265 51.6824C156.535 51.5611 156.759 51.3651 156.937 51.0944C157.123 50.8331 157.301 50.4971 157.469 50.0864L154.235 42.4704H155.635L158.127 48.6864L160.171 42.4704H161.515L159.443 48.2804C159.34 48.5791 159.223 48.9151 159.093 49.2884C158.962 49.6617 158.817 50.0397 158.659 50.4224C158.5 50.8144 158.323 51.1737 158.127 51.5004C157.94 51.8364 157.73 52.1071 157.497 52.3124C157.301 52.4897 157.109 52.6297 156.923 52.7324C156.736 52.8351 156.507 52.9051 156.237 52.9424C155.975 52.9891 155.621 53.0124 155.173 53.0124ZM161.876 49.8484L164.27 45.9844L162.086 42.4704H163.36L165.306 45.6624H166.412V42.4704H167.602V45.6624H168.708L170.654 42.4704H171.928L169.744 45.9844L172.138 49.8484H170.752L168.834 46.6704H167.602V49.8484H166.412V46.6704H165.18L163.262 49.8484H161.876ZM176.377 49.9324C175.91 49.9324 175.495 49.8671 175.131 49.7364C174.767 49.5964 174.454 49.4051 174.193 49.1624C173.931 48.9104 173.717 48.6164 173.549 48.2804C173.381 47.9351 173.255 47.5617 173.171 47.1604C173.087 46.7591 173.045 46.3344 173.045 45.8864C173.045 45.1677 173.059 44.5004 173.087 43.8844C173.124 43.2591 173.227 42.7037 173.395 42.2184C173.563 41.7237 173.847 41.3131 174.249 40.9864C174.65 40.6597 175.215 40.4311 175.943 40.3004C176.316 40.2351 176.685 40.1791 177.049 40.1324C177.413 40.0857 177.781 40.0391 178.155 39.9924C178.276 39.9737 178.402 39.9551 178.533 39.9364C178.663 39.9177 178.799 39.8944 178.939 39.8664C179.088 39.8384 179.228 39.8151 179.359 39.7964V40.8884C179.256 40.9257 179.144 40.9584 179.023 40.9864C178.911 41.0051 178.789 41.0237 178.659 41.0424C178.537 41.0611 178.411 41.0751 178.281 41.0844C178.159 41.0937 178.038 41.1077 177.917 41.1264C177.795 41.1357 177.679 41.1497 177.567 41.1684C177.24 41.2057 176.895 41.2431 176.531 41.2804C176.167 41.3084 175.821 41.3831 175.495 41.5044C175.177 41.6164 174.907 41.8357 174.683 42.1624C174.571 42.3304 174.473 42.5311 174.389 42.7644C174.314 42.9977 174.258 43.2357 174.221 43.4784C174.193 43.7117 174.174 43.9357 174.165 44.1504C174.351 43.8891 174.58 43.6791 174.851 43.5204C175.121 43.3524 175.411 43.2311 175.719 43.1564C176.027 43.0724 176.321 43.0304 176.601 43.0304C177.273 43.0304 177.842 43.1704 178.309 43.4504C178.775 43.7211 179.13 44.1084 179.373 44.6124C179.615 45.1164 179.737 45.7044 179.737 46.3764C179.737 47.0484 179.606 47.6551 179.345 48.1964C179.083 48.7284 178.701 49.1531 178.197 49.4704C177.702 49.7784 177.095 49.9324 176.377 49.9324ZM176.405 48.8824C176.871 48.8824 177.263 48.7704 177.581 48.5464C177.898 48.3224 178.136 48.0237 178.295 47.6504C178.463 47.2771 178.547 46.8664 178.547 46.4184C178.547 45.9797 178.463 45.5877 178.295 45.2424C178.136 44.8877 177.898 44.6077 177.581 44.4024C177.273 44.1971 176.89 44.0944 176.433 44.0944C175.985 44.0944 175.597 44.2017 175.271 44.4164C174.953 44.6311 174.706 44.9204 174.529 45.2844C174.361 45.6391 174.277 46.0264 174.277 46.4464C174.277 46.8757 174.356 47.2771 174.515 47.6504C174.673 48.0237 174.907 48.3224 175.215 48.5464C175.532 48.7704 175.929 48.8824 176.405 48.8824ZM183.701 49.9324C183.365 49.9324 183.038 49.8904 182.721 49.8064C182.413 49.7131 182.133 49.5777 181.881 49.4004C181.638 49.2137 181.442 48.9851 181.293 48.7144C181.153 48.4344 181.083 48.1124 181.083 47.7484C181.083 47.3284 181.158 46.9737 181.307 46.6844C181.466 46.3951 181.676 46.1664 181.937 45.9984C182.198 45.8304 182.502 45.7091 182.847 45.6344C183.192 45.5597 183.552 45.5224 183.925 45.5224H186.095C186.095 45.1024 186.034 44.7384 185.913 44.4304C185.801 44.1224 185.614 43.8844 185.353 43.7164C185.092 43.5391 184.746 43.4504 184.317 43.4504C184.056 43.4504 183.813 43.4784 183.589 43.5344C183.365 43.5904 183.174 43.6791 183.015 43.8004C182.856 43.9217 182.74 44.0851 182.665 44.2904H181.391C181.456 43.9544 181.582 43.6697 181.769 43.4364C181.965 43.1937 182.198 42.9977 182.469 42.8484C182.749 42.6897 183.048 42.5731 183.365 42.4984C183.682 42.4237 184 42.3864 184.317 42.3864C185.026 42.3864 185.596 42.5311 186.025 42.8204C186.454 43.1004 186.767 43.5017 186.963 44.0244C187.159 44.5377 187.257 45.1491 187.257 45.8584V49.8484H186.263L186.193 48.9104C185.988 49.1904 185.74 49.4051 185.451 49.5544C185.162 49.7037 184.863 49.8017 184.555 49.8484C184.256 49.9044 183.972 49.9324 183.701 49.9324ZM183.813 48.8824C184.28 48.8824 184.681 48.8077 185.017 48.6584C185.362 48.4997 185.628 48.2711 185.815 47.9724C186.002 47.6737 186.095 47.3097 186.095 46.8804V46.5164H184.793C184.485 46.5164 184.182 46.5211 183.883 46.5304C183.584 46.5397 183.314 46.5771 183.071 46.6424C182.828 46.7077 182.632 46.8197 182.483 46.9784C182.343 47.1371 182.273 47.3657 182.273 47.6644C182.273 47.9444 182.343 48.1731 182.483 48.3504C182.632 48.5277 182.824 48.6631 183.057 48.7564C183.3 48.8404 183.552 48.8824 183.813 48.8824ZM54.3369 63.8484V56.4704H55.5269V59.7044H59.2229V56.4704H60.4129V63.8484H59.2229V60.7544H55.5269V63.8484H54.3369ZM65.486 63.9324C64.702 63.9324 64.0533 63.7737 63.54 63.4564C63.0266 63.1297 62.644 62.6817 62.392 62.1124C62.14 61.5431 62.014 60.8944 62.014 60.1664C62.014 59.4291 62.1446 58.7804 62.406 58.2204C62.6766 57.6511 63.0686 57.2031 63.582 56.8764C64.0953 56.5497 64.7253 56.3864 65.472 56.3864C66.0226 56.3864 66.5033 56.4937 66.914 56.7084C67.334 56.9137 67.6793 57.1937 67.95 57.5484C68.23 57.9031 68.4306 58.2997 68.552 58.7384C68.6826 59.1771 68.7386 59.6297 68.72 60.0964C68.7106 60.1804 68.706 60.2644 68.706 60.3484C68.706 60.4324 68.7013 60.5164 68.692 60.6004H63.218C63.2553 61.0297 63.3626 61.4171 63.54 61.7624C63.7173 62.1077 63.9693 62.3831 64.296 62.5884C64.6226 62.7844 65.0286 62.8824 65.514 62.8824C65.7566 62.8824 65.9993 62.8544 66.242 62.7984C66.494 62.7331 66.718 62.6257 66.914 62.4764C67.1193 62.3271 67.264 62.1264 67.348 61.8744H68.566C68.454 62.3504 68.244 62.7424 67.936 63.0504C67.628 63.3491 67.2593 63.5731 66.83 63.7224C66.4006 63.8624 65.9526 63.9324 65.486 63.9324ZM63.246 59.5644H67.516C67.5066 59.1444 67.4133 58.7757 67.236 58.4584C67.0586 58.1411 66.816 57.8937 66.508 57.7164C66.2093 57.5391 65.85 57.4504 65.43 57.4504C64.9726 57.4504 64.5853 57.5484 64.268 57.7444C63.96 57.9404 63.722 58.1971 63.554 58.5144C63.386 58.8317 63.2833 59.1817 63.246 59.5644ZM69.5253 66.1164V62.8124C69.796 62.8124 70.0106 62.7377 70.1693 62.5884C70.3373 62.4391 70.468 62.2431 70.5613 62.0004C70.6546 61.7577 70.7246 61.4964 70.7713 61.2164C70.818 60.9271 70.8553 60.6517 70.8833 60.3904C70.93 59.9611 70.958 59.5364 70.9673 59.1164C70.986 58.6871 70.9953 58.3464 70.9953 58.0944C71.0046 57.8237 71.0093 57.5531 71.0093 57.2824C71.0093 57.0117 71.0093 56.7411 71.0093 56.4704H76.2453V62.8124H77.2113V66.1164H76.0633V63.8484H70.6733V66.1164H69.5253ZM71.4153 62.8124H75.0553V57.5204H72.1433C72.134 57.9124 72.1246 58.3511 72.1153 58.8364C72.106 59.3217 72.0873 59.7744 72.0593 60.1944C72.05 60.4371 72.0266 60.7124 71.9893 61.0204C71.9613 61.3284 71.9053 61.6411 71.8213 61.9584C71.7373 62.2664 71.602 62.5511 71.4153 62.8124ZM78.4541 63.8484V56.4704H81.3101C81.6368 56.4704 81.9588 56.4937 82.2761 56.5404C82.6028 56.5777 82.8968 56.6617 83.1581 56.7924C83.4288 56.9137 83.6434 57.0957 83.8021 57.3384C83.9701 57.5811 84.0541 57.9031 84.0541 58.3044C84.0541 58.5471 84.0168 58.7711 83.9421 58.9764C83.8674 59.1724 83.7554 59.3451 83.6061 59.4944C83.4661 59.6437 83.2841 59.7744 83.0601 59.8864C83.5641 59.9984 83.9281 60.2177 84.1521 60.5444C84.3761 60.8711 84.4881 61.2444 84.4881 61.6644C84.4881 62.0377 84.4181 62.3644 84.2781 62.6444C84.1474 62.9151 83.9608 63.1391 83.7181 63.3164C83.4848 63.4937 83.2094 63.6291 82.8921 63.7224C82.5841 63.8064 82.2528 63.8484 81.8981 63.8484H78.4541ZM79.6721 62.8124H81.6181C81.9074 62.8124 82.1781 62.7844 82.4301 62.7284C82.6821 62.6724 82.8874 62.5697 83.0461 62.4204C83.2048 62.2617 83.2841 62.0377 83.2841 61.7484C83.2841 61.4497 83.2141 61.2257 83.0741 61.0764C82.9434 60.9177 82.7708 60.8104 82.5561 60.7544C82.3508 60.6891 82.1268 60.6517 81.8841 60.6424C81.6414 60.6331 81.4128 60.6284 81.1981 60.6284H79.6721V62.8124ZM79.6721 59.6204H80.6941C80.8808 59.6204 81.0954 59.6111 81.3381 59.5924C81.5901 59.5737 81.8328 59.5317 82.0661 59.4664C82.3088 59.3917 82.5048 59.2797 82.6541 59.1304C82.8128 58.9811 82.8921 58.7757 82.8921 58.5144C82.8921 58.1691 82.7941 57.9311 82.5981 57.8004C82.4114 57.6604 82.1874 57.5811 81.9261 57.5624C81.6648 57.5344 81.4221 57.5204 81.1981 57.5204H79.6721V59.6204ZM86.1104 63.8484V56.4704H87.3004V62.1264C87.3657 61.9957 87.4544 61.8557 87.5664 61.7064C87.6784 61.5477 87.767 61.4264 87.8324 61.3424L91.4024 56.4704H92.5784V63.8484H91.3884V58.1924C91.3137 58.3324 91.2297 58.4631 91.1364 58.5844C91.0524 58.7057 90.973 58.8177 90.8984 58.9204L87.2724 63.8484H86.1104ZM93.7082 63.8484L96.1022 59.9844L93.9182 56.4704H95.1922L97.1382 59.6624H98.2442V56.4704H99.4342V59.6624H100.54L102.486 56.4704H103.76L101.576 59.9844L103.97 63.8484H102.584L100.666 60.6704H99.4342V63.8484H98.2442V60.6704H97.0122L95.0942 63.8484H93.7082ZM105.101 63.8484V56.4704H106.291V62.1264C106.356 61.9957 106.445 61.8557 106.557 61.7064C106.669 61.5477 106.757 61.4264 106.823 61.3424L110.393 56.4704H111.569V63.8484H110.379V58.1924C110.304 58.3324 110.22 58.4631 110.127 58.5844C110.043 58.7057 109.963 58.8177 109.889 58.9204L106.263 63.8484H105.101ZM113.44 63.8484V56.4704H115.036L117.43 60.1664L119.782 56.4704H121.35V63.8484H120.174V57.7864L117.57 61.9584H117.234L114.616 57.7864V63.8484H113.44ZM126.45 63.9324C125.675 63.9324 125.026 63.7737 124.504 63.4564C123.981 63.1297 123.589 62.6817 123.328 62.1124C123.076 61.5431 122.95 60.8944 122.95 60.1664C122.95 59.4291 123.076 58.7804 123.328 58.2204C123.589 57.6511 123.981 57.2031 124.504 56.8764C125.026 56.5497 125.684 56.3864 126.478 56.3864C127.252 56.3864 127.896 56.5497 128.41 56.8764C128.932 57.2031 129.32 57.6511 129.572 58.2204C129.833 58.7804 129.964 59.4291 129.964 60.1664C129.964 60.8944 129.833 61.5431 129.572 62.1124C129.31 62.6817 128.918 63.1297 128.396 63.4564C127.882 63.7737 127.234 63.9324 126.45 63.9324ZM126.45 62.8824C126.991 62.8824 127.43 62.7611 127.766 62.5184C128.111 62.2757 128.363 61.9491 128.522 61.5384C128.69 61.1277 128.774 60.6704 128.774 60.1664C128.774 59.6624 128.69 59.2051 128.522 58.7944C128.363 58.3837 128.111 58.0571 127.766 57.8144C127.43 57.5717 126.991 57.4504 126.45 57.4504C125.918 57.4504 125.479 57.5717 125.134 57.8144C124.798 58.0571 124.546 58.3837 124.378 58.7944C124.219 59.2051 124.14 59.6624 124.14 60.1664C124.14 60.6704 124.219 61.1277 124.378 61.5384C124.546 61.9491 124.798 62.2757 125.134 62.5184C125.479 62.7611 125.918 62.8824 126.45 62.8824ZM134.706 63.9324C133.931 63.9324 133.287 63.7737 132.774 63.4564C132.27 63.1297 131.892 62.6817 131.64 62.1124C131.397 61.5431 131.276 60.8991 131.276 60.1804C131.276 59.4804 131.402 58.8457 131.654 58.2764C131.915 57.6977 132.307 57.2404 132.83 56.9044C133.362 56.5591 134.034 56.3864 134.846 56.3864C135.35 56.3864 135.798 56.4704 136.19 56.6384C136.591 56.8064 136.922 57.0537 137.184 57.3804C137.445 57.6977 137.627 58.0991 137.73 58.5844H136.512C136.372 58.1737 136.148 57.8844 135.84 57.7164C135.541 57.5391 135.186 57.4504 134.776 57.4504C134.216 57.4504 133.768 57.5811 133.432 57.8424C133.096 58.1037 132.848 58.4444 132.69 58.8644C132.54 59.2751 132.466 59.7137 132.466 60.1804C132.466 60.6657 132.545 61.1137 132.704 61.5244C132.862 61.9351 133.11 62.2664 133.446 62.5184C133.782 62.7611 134.216 62.8824 134.748 62.8824C135.14 62.8824 135.508 62.7984 135.854 62.6304C136.208 62.4624 136.442 62.1637 136.554 61.7344H137.786C137.692 62.2384 137.492 62.6537 137.184 62.9804C136.885 63.3071 136.516 63.5497 136.078 63.7084C135.648 63.8577 135.191 63.9324 134.706 63.9324ZM141.016 63.8484V57.5204H138.482V56.4704H144.74V57.5204H142.206V63.8484H141.016ZM145.802 63.8484V56.4704H146.992V62.1264C147.057 61.9957 147.146 61.8557 147.258 61.7064C147.37 61.5477 147.458 61.4264 147.524 61.3424L151.094 56.4704H152.27V63.8484H151.08V58.1924C151.005 58.3324 150.921 58.4631 150.828 58.5844C150.744 58.7057 150.664 58.8177 150.59 58.9204L146.964 63.8484H145.802ZM157.397 63.8484V62.8264L160.197 60.4044C160.449 60.1897 160.724 59.9564 161.023 59.7044C161.331 59.4431 161.62 59.1631 161.891 58.8644C162.171 58.5657 162.4 58.2484 162.577 57.9124C162.764 57.5671 162.857 57.2031 162.857 56.8204C162.857 56.2231 162.68 55.7657 162.325 55.4484C161.97 55.1217 161.494 54.9584 160.897 54.9584C160.421 54.9584 160.006 55.0564 159.651 55.2524C159.296 55.4484 159.063 55.7331 158.951 56.1064H157.649C157.742 55.5931 157.952 55.1731 158.279 54.8464C158.615 54.5104 159.016 54.2584 159.483 54.0904C159.959 53.9224 160.449 53.8384 160.953 53.8384C161.569 53.8384 162.11 53.9504 162.577 54.1744C163.053 54.3984 163.422 54.7251 163.683 55.1544C163.954 55.5744 164.089 56.0924 164.089 56.7084C164.089 57.3151 163.972 57.8471 163.739 58.3044C163.515 58.7617 163.216 59.1771 162.843 59.5504C162.479 59.9144 162.087 60.2737 161.667 60.6284L159.161 62.7424H164.201V63.8484H157.397ZM170.597 63.8484V61.8744H165.221V60.9644L170.065 53.9504H171.815V60.7684H172.977V61.8744H171.815V63.8484H170.597ZM166.691 60.7684H170.597V55.0564L166.691 60.7684Z" fill="#FFFFFF"/>
</svg>

