<svg width="200" height="40" viewBox="0 0 200 40" fill="none" xmlns="http://www.w3.org/2000/svg">
<path d="M181.264 23.2582L178.091 23.2645C181.471 15.6441 184.852 8.0237 188.239 0.406466H189.736C193.153 8.03426 196.579 15.6568 200 23.2803L196.597 23.2561L196.523 23.0912C196.223 22.4161 195.926 21.7411 195.63 21.066C195.134 20.8304 194.416 20.5895 193.428 20.5007C192.49 20.4173 191.428 20.5641 190.62 20.935C188.714 21.8129 186.135 22.8842 182.386 21.1135C182.097 21.7717 181.807 22.4309 181.514 23.0912L181.439 23.2571L181.264 23.2582ZM194.11 17.5415C193.42 15.9262 192.738 14.3087 192.054 12.6881C191.041 10.2856 190.026 7.87579 189.018 5.54519C187.995 7.9096 186.972 10.3374 185.952 12.7557C185.178 14.5929 184.404 16.4248 183.62 18.2578C186.212 19.3851 188.092 18.8283 189.396 18.2272C190.983 17.5415 192.647 17.4105 194.11 17.5415ZM38.4117 17.6599C38.1953 17.0429 38.0514 16.4428 37.976 15.8205C37.9015 15.1993 37.8945 14.5633 37.9488 13.8777C38.0162 13.0473 38.2396 12.1577 38.6028 11.3168C38.9439 10.5244 39.4118 9.77323 39.9893 9.15519C41.3668 7.67929 43.0843 7.06547 44.7053 7.12041C45.4448 7.14471 46.1652 7.30952 46.8233 7.59477C47.4843 7.88107 48.085 8.28993 48.5821 8.80127C49.5047 9.74999 50.0732 11.0516 50.0259 12.5888C50.0229 12.7018 50.0159 12.8127 50.0048 12.9194C49.9937 13.0293 49.9786 13.1392 49.9595 13.2491L49.9162 13.5037L46.9571 13.3061L47.0607 12.9554C47.1925 12.5106 47.1654 11.9063 46.8575 11.3727C46.613 10.9502 46.1884 10.5698 45.5213 10.3416C44.8854 10.125 44.2283 10.1219 43.6146 10.3057C42.9897 10.4938 42.4062 10.8762 41.9333 11.4256C41.3477 12.1038 40.9925 12.9818 40.8607 13.8998C40.7218 14.8634 40.8295 15.8681 41.1766 16.7354C41.398 17.288 41.6847 17.7803 42.0258 18.2103C42.869 19.2752 44.0432 19.9736 45.3301 20.262C46.621 20.5525 48.0266 20.431 49.3266 19.8584C49.9404 19.5879 50.53 19.2182 51.0703 18.747C51.9477 17.981 52.6208 16.9996 53.0786 15.9124C53.5596 14.7704 53.8021 13.5121 53.795 12.2634C53.792 11.6664 53.7628 11.4636 53.7145 11.1129C53.6994 11.0104 53.6833 10.8994 53.6562 10.6734C53.6441 10.5762 53.6179 10.4663 53.5918 10.3585L53.5556 10.1979C53.2698 8.84036 52.5655 7.39403 51.4557 6.15689C50.4847 5.074 49.2029 4.15275 47.6202 3.59176C46.7951 3.30017 45.9268 3.1343 45.0735 3.07831C44.167 3.0202 43.2795 3.0857 42.4816 3.25791L41.9946 3.38257C41.5962 3.48505 41.2078 3.61606 40.8295 3.77347C40.4441 3.93511 40.0708 4.12 39.7076 4.32813C38.3664 5.09302 37.1851 6.18119 36.2564 7.52504C35.3539 8.82874 34.6858 10.3733 34.3367 12.0922C34.1364 13.079 34.0489 14.0868 34.071 15.0778C34.0932 16.0762 34.226 17.0608 34.4675 17.9958C34.5188 18.1997 34.6264 18.5695 34.7522 18.9583C34.8468 19.2509 34.9524 19.5573 35.0541 19.8119L35.1597 20.075L32.5105 21.2762L32.3988 21.0142C32.2951 20.7701 32.2187 20.5546 32.1382 20.3307L32.0215 20.0095C31.6955 19.1305 31.459 18.0772 31.3191 16.9996C31.1722 15.8691 31.129 14.7091 31.1974 13.7012C31.2558 12.8339 31.3815 11.9454 31.5787 11.0716C31.7659 10.237 32.0184 9.41508 32.3384 8.63857C32.433 8.4072 32.5326 8.179 32.6372 7.95291C32.7409 7.73105 32.8495 7.50919 32.9652 7.28839C33.1142 7.05385 33.2379 6.77071 33.3868 6.53512C33.743 5.9382 34.1344 5.3751 34.56 4.84897C34.9836 4.32496 35.4475 3.83158 35.9496 3.36884C36.3259 3.02337 36.7072 2.70748 37.1026 2.41695C37.4981 2.12747 37.9086 1.86124 38.3412 1.61402C38.5606 1.49042 38.8031 1.36364 39.0476 1.24637C39.3232 1.11325 39.5969 0.991757 39.8404 0.891391C40.1071 0.781517 40.4401 0.661078 40.7742 0.552261C41.0911 0.449782 41.407 0.358925 41.6686 0.299762C42.3136 0.151854 42.8841 0.072618 43.4576 0.0324717C44.0211 -0.00556162 44.5926 -0.00450514 45.2496 0.00711616L45.8221 0.0631097C46.4761 0.108538 47.1593 0.251163 47.8304 0.452951C48.6102 0.68749 49.3789 1.00338 50.0712 1.33723C51.1357 1.85279 52.1248 2.5807 52.9831 3.42166C53.8936 4.31545 54.6593 5.34129 55.2107 6.38193C55.3516 6.6471 55.4774 6.89643 55.5961 7.15527C55.7158 7.41939 55.8255 7.68245 55.9281 7.9677L56.1927 8.78965C56.2581 8.98932 56.3105 9.17104 56.3537 9.34853C56.397 9.52813 56.4332 9.71513 56.4654 9.92325C56.4865 10.0585 56.5097 10.1863 56.5308 10.3089C56.5872 10.6195 56.6385 10.8994 56.6626 11.3643C56.7079 12.2433 56.6999 13.0409 56.6093 13.8354C56.5177 14.6309 56.3427 15.4254 56.0559 16.2991C55.9432 16.6382 55.8064 16.9922 55.6554 17.3355C55.5065 17.6747 55.3405 18.0127 55.1665 18.3255C54.7881 19.0037 54.3072 19.6725 53.7679 20.2736C53.2396 20.8621 52.652 21.3882 52.0453 21.8013C51.7716 21.9851 51.343 22.2534 51.0552 22.4045C50.8993 22.4964 50.6648 22.6105 50.4294 22.713C50.1919 22.8176 49.9474 22.9148 49.7764 22.9676C49.2008 23.1483 48.7642 23.2761 48.3124 23.3596C47.8626 23.442 47.4008 23.4821 46.779 23.4864C45.8805 23.4927 44.9236 23.3575 44.01 23.0743C43.1578 22.8102 42.3387 22.4161 41.6344 21.8868C41.5992 21.8615 41.5559 21.8351 41.5127 21.8087C41.4433 21.7664 41.3728 21.7241 41.3004 21.6639C41.0166 21.4262 40.7832 21.2287 40.5588 21.0142C40.3334 20.7987 40.1171 20.5673 39.8706 20.2641C39.6684 20.0158 39.442 19.6989 39.2357 19.3714C39.0425 19.0639 38.8614 18.7428 38.7326 18.4575C38.6682 18.317 38.6129 18.187 38.5636 18.0624C38.5082 17.924 38.4589 17.7919 38.4117 17.6599ZM125.141 5.82833V17.9409C125.651 17.9451 126.016 17.9441 126.085 17.9367C127.787 17.7613 129.386 17.3102 130.55 16.3646C131.694 15.436 132.423 14.0118 132.423 11.8756C132.423 9.96446 131.828 8.61638 130.873 7.68774C129.709 6.55519 127.999 6.02272 126.172 5.83995C126.13 5.83678 125.711 5.83255 125.141 5.82833ZM122.255 22.7764H122.247V20.8071C119.361 20.7152 116.61 19.9947 114.667 18.3762C112.958 16.951 111.876 14.8433 111.876 11.8756C111.876 8.91326 112.955 6.80769 114.657 5.37827C116.599 3.75129 119.349 3.02126 122.226 2.91455V0.529018H125.162V2.91455C128.086 3.01809 130.835 3.71325 132.764 5.33073C134.453 6.74747 135.51 8.85832 135.51 11.8756C135.51 14.8845 134.441 16.9911 132.749 18.4047C130.807 20.0285 128.048 20.7194 125.162 20.8082V23.2856H124.885H122.255V22.7764ZM122.247 17.9018V5.81671C121.803 5.81671 121.496 5.81776 121.468 5.81988C119.573 5.97835 117.79 6.4918 116.575 7.63174C115.584 8.56356 114.963 9.92642 114.963 11.8756C114.963 13.8777 115.62 15.2532 116.656 16.1829C117.706 17.1242 119.154 17.6218 120.711 17.8553C120.804 17.869 121.441 17.886 122.247 17.9018ZM163.312 10.5085H167.262L173.316 0.529018H176.531L169.731 11.8735L176.75 23.2856H173.408L167.234 13.3072H163.312V23.2856H160.375V0.529018H163.312V10.5085ZM153.182 12.3098L153.201 7.24824L140.005 23.2867H138.788V0.529018H141.875C141.875 6.07872 141.874 11.2005 141.639 16.7101L154.961 0.497324H156.238V23.2497L153.181 23.2888L153.182 12.3098ZM78.7592 16.2547V23.3194H75.7024V0.561769H75.9791C77.2328 0.561769 77.9995 0.5586 78.7723 0.556487C80.6629 0.549091 82.5716 0.541696 84.427 0.562825C86.713 0.561769 88.5945 1.39322 89.9227 2.75714C91.3152 4.1855 92.096 6.19493 92.096 8.43995C92.096 10.6617 91.3052 12.649 89.9136 14.0636C88.5774 15.4244 86.6909 16.2547 84.427 16.2547H78.7592ZM78.73 3.48611V13.2977H84.427C85.7672 13.2977 86.9454 12.7821 87.7815 11.902C88.6026 11.0368 89.0986 9.81444 89.0986 8.37656C89.0986 6.95243 88.6136 5.72479 87.7856 4.85954C86.9625 3.99745 85.7954 3.48611 84.427 3.48611L84.4239 3.48505C83.1411 3.46498 81.818 3.47132 80.4828 3.47871L78.73 3.48611ZM72.8036 0.863923V3.49773H62.9975V23.3311H59.9407V0.57339H72.8036V0.863923ZM16.0354 0.568108H28.5924V3.46075H18.8466V10.1356H28.2604V13.0283H18.8466V20.3053H28.9245V23.3247H15.7597V0.568108H16.0354ZM12.8629 0.863923V3.49773H3.05675V23.33H0V0.57339H12.8629V0.863923ZM96.2243 17.8057L93.7512 23.2856L90.4066 23.2825C93.7874 15.6663 97.1661 8.04905 100.552 0.434991H102.048L111.96 22.5239L112.317 23.2983L108.91 23.2846L106.436 17.8057H96.2243ZM101.331 5.58111L97.3221 14.9437H105.339L101.331 5.58111Z" fill="#FFFFFF"/>
<path d="M103.652 35.8028C103.652 34.5615 104.032 33.5589 104.78 32.8193C105.529 32.0787 106.439 31.7143 107.513 31.7143C108.023 31.7143 108.511 31.8051 108.978 31.9984C109.433 32.1928 109.845 32.4887 110.204 32.8986C110.561 33.3085 110.81 33.7987 110.941 34.3787H109.726C109.357 33.4226 108.62 32.9324 107.503 32.9218C106.732 32.9218 106.103 33.1838 105.638 33.7184C105.16 34.254 104.921 34.9481 104.921 35.8028C104.921 36.611 105.16 37.283 105.648 37.8292C106.126 38.3764 106.743 38.6501 107.503 38.6501C108.034 38.6501 108.511 38.5127 108.913 38.2391C109.314 37.9665 109.596 37.5672 109.759 37.0548H110.984C110.8 37.9771 110.388 38.6722 109.737 39.1392C109.076 39.6178 108.338 39.8566 107.503 39.8566C106.429 39.8566 105.518 39.4921 104.769 38.7515C104.022 38.0236 103.652 37.0442 103.652 35.8028ZM116.96 31.8051V32.9672H113.608V35.0739H116.776V36.2466H113.608V38.5698H117.025V39.7773H112.34V31.8051H116.96ZM122.155 35.9053L125.235 31.7829H125.702V39.7773H124.433V34.7886L122.241 37.7383H122.068L119.867 34.7886V39.7773H118.598V31.7829H119.064L122.155 35.9053ZM132.209 31.8051V32.9672H128.858V35.0739H132.024V36.2466H128.858V38.5698H132.274V39.7773H127.589V31.8051H132.209ZM135.397 29.4597L136.276 29.3689C136.341 29.8464 136.656 30.0968 137.219 30.1084C137.795 30.1084 138.131 29.858 138.206 29.3689C138.565 29.4027 138.835 29.4249 139.02 29.4597C138.977 29.9943 138.803 30.4042 138.499 30.7117C138.196 31.0191 137.773 31.1786 137.23 31.1786C136.699 31.1786 136.265 31.0191 135.939 30.7117C135.614 30.4042 135.43 29.9837 135.397 29.4597ZM134.28 39.7879L138.923 34.3565L138.835 36.8847V39.7773H140.083V31.7829H139.627L135.018 37.1467L135.104 34.7094V31.8051H133.847V39.7879H134.28ZM147.967 39.7773H146.698V36.2233H143.228V39.7773H141.97V31.8051H143.228V35.0052H146.698V31.8051H147.967V39.7773ZM151.091 31.8051V32.2045V34.4136H152.957C153.824 34.4136 154.496 34.6978 154.984 35.2788C155.472 35.8599 155.679 36.554 155.603 37.3516C155.549 38.0457 155.277 38.6268 154.8 39.0822C154.323 39.5491 153.705 39.7773 152.957 39.7773H149.855V31.8051H151.091ZM152.957 35.5979H152.61H151.091V38.6036C151.276 38.6036 151.546 38.6036 151.915 38.6036C152.284 38.6152 152.566 38.6152 152.751 38.6152C153.239 38.6152 153.629 38.4905 153.922 38.2507C154.215 38.0119 154.366 37.6591 154.399 37.2037C154.432 36.7473 154.312 36.3607 154.041 36.0532C153.77 35.7458 153.402 35.5979 152.957 35.5979ZM158.065 31.8051V39.7773H156.806V31.8051H158.065ZM164.572 31.8051V32.9672H161.221V35.0739H164.388V36.2466H161.221V38.5698H164.637V39.7773H159.952V31.8051H164.572ZM170.397 32.9789H168.194V31.8051H173.835V32.9789H171.632V39.7773H170.397V32.9789ZM176.491 37.9771L176.893 37.1234L174.138 31.9646V31.8051H175.526L177.533 35.7796H177.576L179.387 31.8051H180.732V31.9425L177.739 38.2169C177.576 38.593 177.414 38.8888 177.251 39.1276C177.077 39.3663 176.872 39.5724 176.633 39.7203C176.394 39.8682 176.112 39.9474 175.797 39.9474C175.483 39.9369 175.114 39.8566 174.713 39.6854L174.886 38.6501C175.277 38.8201 175.602 38.854 175.851 38.7409C176.101 38.6384 176.318 38.3764 176.491 37.9771ZM183.065 39.7773H181.795V31.8051H184.94C185.754 31.8051 186.404 32.0787 186.892 32.6133C187.381 33.1606 187.619 33.8325 187.619 34.6185C187.619 35.3929 187.381 36.0416 186.892 36.5772C186.404 37.1118 185.754 37.3854 184.94 37.3854H183.065V39.7773ZM183.042 36.2233H184.94C185.364 36.2233 185.721 36.0648 185.992 35.7458C186.263 35.4384 186.404 35.0506 186.404 34.5837C186.404 34.1167 186.274 33.7184 186.004 33.411C185.732 33.1035 185.374 32.9556 184.94 32.9556H183.042V36.2233ZM190.103 31.8051V32.2045V34.4136H191.968C192.836 34.4136 193.509 34.6978 193.997 35.2788C194.485 35.8599 194.691 36.554 194.614 37.3516C194.56 38.0457 194.289 38.6268 193.812 39.0822C193.335 39.5491 192.717 39.7773 191.968 39.7773H188.866V31.8051H190.103ZM191.968 35.5979H191.621H190.103V38.6036C190.287 38.6036 190.559 38.6036 190.927 38.6036C191.296 38.6152 191.578 38.6152 191.762 38.6152C192.25 38.6152 192.64 38.4905 192.933 38.2507C193.227 38.0119 193.378 37.6591 193.411 37.2037C193.443 36.7473 193.324 36.3607 193.053 36.0532C192.782 35.7458 192.413 35.5979 191.968 35.5979ZM197.076 31.8051V39.7773H195.819V31.8051H197.076Z" fill="#C93243"/>
<path d="M4.12128 35.5356H98.948V36.3047H4.12128C3.94822 37.3252 3.1614 38.1007 2.07674 38.1007C0.992086 38.1007 0 37.1245 0 35.9201C0 34.7157 0.992086 33.7395 2.07674 33.7395C3.1614 33.7395 3.94822 34.515 4.12128 35.5356Z" fill="#C93243"/>
</svg>
