<svg width="114" height="37" viewBox="0 0 114 37" fill="none" xmlns="http://www.w3.org/2000/svg">
<path d="M4.42969 0.279785C5.25 0.279785 5.95312 0.42041 6.53906 0.70166C7.125 0.959473 7.59375 1.29932 7.94531 1.72119C8.29688 2.11963 8.55469 2.56494 8.71875 3.05713C8.88281 3.52588 8.96484 3.97119 8.96484 4.39307V20.811C8.96484 20.9751 8.90625 21.3501 8.78906 21.936C8.67188 22.4985 8.35547 23.0728 7.83984 23.6587C7.58203 23.9165 7.17188 24.186 6.60938 24.4673C6.04688 24.7251 5.32031 24.854 4.42969 24.854H3.12891V36.2798H0V0.279785H4.42969ZM5.48438 21.4438C5.60156 21.3267 5.68359 21.2095 5.73047 21.0923C5.75391 21.022 5.77734 20.9634 5.80078 20.9165V4.49854C5.77734 4.21729 5.70703 4.00635 5.58984 3.86572C5.47266 3.7251 5.34375 3.61963 5.20312 3.54932C5.0625 3.479 4.91016 3.44385 4.74609 3.44385C4.60547 3.42041 4.5 3.40869 4.42969 3.40869H3.12891V21.7251H4.42969C4.61719 21.7251 4.80469 21.7134 4.99219 21.6899C5.20312 21.6431 5.36719 21.561 5.48438 21.4438Z" fill="white"/>
<path d="M17.6133 20.9517V4.46338C17.6133 4.29932 17.5547 4.11182 17.4375 3.90088C17.25 3.57275 16.8633 3.40869 16.2773 3.40869H14.9414V21.8657H16.2773C17.1445 21.8657 17.5898 21.561 17.6133 20.9517ZM11.8125 0.279785H16.2773C17.7539 0.279785 18.9023 0.771973 19.7227 1.75635C20.3789 2.52979 20.707 3.43213 20.707 4.46338V20.9165C20.7305 22.0181 20.3672 22.9556 19.6172 23.729C19.1953 24.1509 18.7031 24.4673 18.1406 24.6782C18.5859 25.0298 18.9844 25.3696 19.3359 25.6978C20.25 26.6118 20.707 27.9126 20.707 29.6001V36.2798H17.6133V28.6157C17.5898 27.7954 17.4375 27.2446 17.1562 26.9634C16.5938 26.4243 15.8555 25.8501 14.9414 25.2407V36.2798H11.8125V0.279785Z" fill="white"/>
<path d="M28.0547 36.2798C27.2578 36.2798 26.5664 36.1392 25.9805 35.8579C25.418 35.5767 24.9609 35.2251 24.6094 34.8032C24.2578 34.3813 24 33.936 23.8359 33.4673C23.6719 32.9751 23.5781 32.5181 23.5547 32.0962V4.39307C23.5547 3.97119 23.6367 3.52588 23.8008 3.05713C23.9648 2.58838 24.2227 2.14307 24.5742 1.72119C24.9258 1.29932 25.3828 0.959473 25.9453 0.70166C26.5312 0.42041 27.2344 0.279785 28.0547 0.279785C28.8516 0.279785 29.5312 0.42041 30.0938 0.70166C30.6797 0.959473 31.1367 1.29932 31.4648 1.72119C31.8164 2.14307 32.0625 2.58838 32.2031 3.05713C32.3672 3.52588 32.4492 3.97119 32.4492 4.39307V32.0962C32.4492 32.1665 32.4375 32.3071 32.4141 32.5181C32.4141 32.729 32.3789 32.9634 32.3086 33.2212C32.2383 33.479 32.1211 33.772 31.957 34.1001C31.8164 34.4282 31.6055 34.7329 31.3242 35.0142C31.0664 35.3188 30.6562 35.6118 30.0938 35.8931C29.5547 36.1509 28.875 36.2798 28.0547 36.2798ZM26.6836 32.0259C26.7539 32.7759 27.2109 33.1509 28.0547 33.1509C28.1953 33.1509 28.3594 33.1274 28.5469 33.0806C28.7578 33.0337 28.9453 32.9517 29.1094 32.8345C29.2266 32.6938 29.2852 32.5532 29.2852 32.4126C29.3086 32.2485 29.3203 32.1431 29.3203 32.0962V4.39307C29.2969 4.15869 29.2266 3.97119 29.1094 3.83057C29.0156 3.68994 28.8984 3.59619 28.7578 3.54932C28.6172 3.479 28.4766 3.44385 28.3359 3.44385C28.2188 3.42041 28.125 3.40869 28.0547 3.40869C27.9844 3.40869 27.8672 3.42041 27.7031 3.44385C27.5625 3.44385 27.4219 3.479 27.2812 3.54932C27.1406 3.59619 27.0117 3.68994 26.8945 3.83057C26.7773 3.97119 26.707 4.15869 26.6836 4.39307V32.0259Z" fill="white"/>
<path d="M44.1211 32.061C44.1211 32.1313 44.1094 32.272 44.0859 32.4829C44.0859 32.6938 44.0508 32.9399 43.9805 33.2212C43.9102 33.479 43.793 33.7603 43.6289 34.0649C43.4648 34.3696 43.2422 34.6626 42.9609 34.9438C42.7031 35.272 42.3164 35.5767 41.8008 35.8579C41.2852 36.1157 40.582 36.2446 39.6914 36.2446C38.8945 36.2446 38.2148 36.104 37.6523 35.8228C37.1133 35.5415 36.668 35.2017 36.3164 34.8032C35.9648 34.3813 35.707 33.9243 35.543 33.4321C35.3789 32.9399 35.2969 32.4829 35.2969 32.061V4.42822C35.2969 4.00635 35.3672 3.54932 35.5078 3.05713C35.6719 2.56494 35.918 2.11963 36.2461 1.72119C36.5977 1.29932 37.0547 0.947754 37.6172 0.666504C38.1797 0.385254 38.8711 0.244629 39.6914 0.244629C40.5117 0.244629 41.2031 0.385254 41.7656 0.666504C42.3281 0.947754 42.7852 1.29932 43.1367 1.72119C43.4883 2.11963 43.7344 2.56494 43.875 3.05713C44.0391 3.54932 44.1211 4.00635 44.1211 4.42822V7.31104H40.9922V4.42822C40.9922 4.14697 40.9336 3.93604 40.8164 3.79541C40.7227 3.65479 40.6055 3.54932 40.4648 3.479C40.3242 3.40869 40.1719 3.37354 40.0078 3.37354C39.8672 3.3501 39.7617 3.33838 39.6914 3.33838C39.2227 3.33838 38.9297 3.40869 38.8125 3.54932C38.6953 3.68994 38.6133 3.79541 38.5664 3.86572C38.4727 4.05322 38.4258 4.18213 38.4258 4.25244C38.4023 4.32275 38.4023 4.38135 38.4258 4.42822V31.9907C38.4258 32.7407 38.8477 33.1157 39.6914 33.1157C39.8789 33.1157 40.0781 33.104 40.2891 33.0806C40.5 33.0337 40.6641 32.9517 40.7812 32.8345C40.8984 32.6704 40.957 32.5181 40.957 32.3774C40.9805 32.2134 40.9922 32.1079 40.9922 32.061V29.0376H44.1211V32.061Z" fill="white"/>
<path d="M52.8047 0.279785H55.9336V36.2798H52.8047V16.1001H50.1328V36.2798H46.9688V0.279785H50.1328V12.936H52.8047V0.279785Z" fill="white"/>
<path d="M66.0586 36.2798H58.7812V33.0454H60.9258V3.40869H58.7812V0.279785H66.0586V3.40869H64.0547V33.0454H66.0586V36.2798Z" fill="white"/>
<path d="M79.1016 0.279785V3.33838H75.6211V36.3149H72.457V3.33838H68.9062V0.279785H79.1016Z" fill="white"/>
<path d="M83.707 22.0415H86.4492V3.40869H84.9727C84.6211 3.40869 84.3633 3.49072 84.1992 3.65479C83.8477 4.02979 83.6836 4.58057 83.707 5.30713V22.0415ZM84.9727 0.279785H89.5781V36.2798H86.4492V25.1704H83.707V36.2446H80.5781V5.4126C80.5312 3.79541 80.9766 2.49463 81.9141 1.51025C82.7109 0.689941 83.7305 0.279785 84.9727 0.279785Z" fill="white"/>
<path d="M92.3906 0.279785H95.5195V33.1509H101.672V36.2798H92.3906V0.279785Z" fill="white"/>
<path d="M107.684 22.0415H110.426V3.40869H108.949C108.598 3.40869 108.34 3.49072 108.176 3.65479C107.824 4.02979 107.66 4.58057 107.684 5.30713V22.0415ZM108.949 0.279785H113.555V36.2798H110.426V25.1704H107.684V36.2446H104.555V5.4126C104.508 3.79541 104.953 2.49463 105.891 1.51025C106.688 0.689941 107.707 0.279785 108.949 0.279785Z" fill="white"/>
</svg>
