<svg width="60" height="53" viewBox="0 0 60 53" fill="none" xmlns="http://www.w3.org/2000/svg">
<path d="M11.4237 15.1866H18.9473L17.0126 19.0559L11.4237 15.1866Z" fill="#95C804"/>
<path d="M23.9114 23.6285L43.6548 38.2414L41.9775 40.5898L37.1566 37.0657C24.3918 47.4643 14.5328 34.9259 15.2133 27.7322L15.6751 22.8495L23.9114 23.6285Z" fill="#95C804"/>
<rect width="8.34286" height="14.1375" rx="4.17143" transform="matrix(-1 0 0 1 24.04 14.3506)" fill="#95C804"/>
<path d="M23.7477 39.1246L21.1906 37.8407L16.0921 49.0429L18.6313 50.3187L23.7477 39.1246Z" fill="#95C804"/>
<path d="M30.7527 37.9882L28.1459 36.9929L23.0474 48.1952L25.6362 49.1822L30.7527 37.9882Z" fill="#95C804"/>
<circle cx="26.2849" cy="26.2849" r="23.2849" stroke="#95C804" stroke-width="6"/>
<path d="M37.6879 33.9686C37.5962 34.44 36.2951 35.7804 36.2951 35.7804C39.2087 38.1571 45.0046 43.977 48.6817 46.8054C52.3588 49.6337 58.0655 48.868 59.9838 48.3114L37.6879 33.9686Z" fill="#95C804"/>
</svg>
