<svg width="110" height="19" viewBox="0 0 110 19" fill="none"
  xmlns="http://www.w3.org/2000/svg">
  <path
    d="M1.67969 9.62383C2.888 9.51876 5.14701 10.0965 5.61982 13.2488C5.87696 14.9631 8.13649 14.9567 8.45672 13.2488C8.92953 10.7269 9.40235 8.52044 9.87517 5.99875C10.3184 3.6347 11.9402 3.52234 12.7121 5.6835C14.2881 10.0966 16.337 9.30858 16.8098 9.15097"
    stroke="url(#paint0_linear_74_643)" stroke-width="1.68112" />
  <path
    d="M32.0031 5.04701C32.0031 5.04701 32.0031 9.21479 32.0031 17.5504C32.0031 17.5504 31.4412 17.5504 30.3174 17.5504C30.3174 17.5504 30.3174 16.9029 30.3174 15.6079C29.8931 16.3819 29.3573 16.9512 28.7098 17.3159C28.0623 17.6732 27.2548 17.8518 26.2873 17.8518C25.3197 17.8518 24.4601 17.6732 23.7084 17.3159C22.9642 16.9512 22.3614 16.4266 21.8999 15.7418C21.2896 14.8636 20.9845 13.5463 20.9845 11.7899V5.04701C20.9845 5.04701 21.5501 5.04701 22.6814 5.04701C22.6814 5.04701 22.6814 7.29463 22.6814 11.7899C22.6814 13.1593 22.8935 14.164 23.3177 14.8041C23.6154 15.273 24.0322 15.6376 24.568 15.8981C25.1113 16.1586 25.7216 16.2889 26.3989 16.2889C27.0613 16.2889 27.6641 16.1549 28.2074 15.887C28.7582 15.619 29.2084 15.2358 29.5582 14.7371C30.0643 13.9854 30.3174 12.8951 30.3174 11.4661V5.04701H32.0031Z"
    fill="#FFFFFF" />
  <path
    d="M35.5804 17.5504C35.5804 17.5504 35.5804 13.3826 35.5804 5.04701C35.5804 5.04701 36.146 5.04701 37.2773 5.04701C37.2773 5.04701 37.2773 9.21479 37.2773 17.5504C37.2773 17.5504 36.7116 17.5504 35.5804 17.5504ZM35.5804 3.53991C35.5804 3.53991 35.5804 2.57983 35.5804 0.659668C35.5804 0.659668 36.146 0.659668 37.2773 0.659668C37.2773 0.659668 37.2773 1.61975 37.2773 3.53991C37.2773 3.53991 36.7116 3.53991 35.5804 3.53991Z"
    fill="#FFFFFF" />
  <path
    d="M51.3819 13.8663C51.3819 13.8663 52.022 13.8663 53.3021 13.8663C52.9449 14.5436 52.6174 15.0757 52.3197 15.4628C52.022 15.8423 51.6648 16.1884 51.248 16.501C50.1018 17.4015 48.7436 17.8518 47.1732 17.8518C45.908 17.8518 44.7544 17.5653 43.7125 16.9922C42.6705 16.4117 41.8519 15.619 41.2565 14.6143C40.6611 13.6021 40.3634 12.4858 40.3634 11.2652C40.3634 10.067 40.6573 8.96919 41.2453 7.9719C41.8407 6.97461 42.6519 6.18943 43.679 5.61636C44.706 5.03584 45.8336 4.74559 47.0616 4.74559C48.4757 4.74559 49.7372 5.11399 50.8461 5.85079C51.9625 6.5876 52.7737 7.58489 53.2798 8.84267H51.3819C50.8982 8.024 50.2842 7.39511 49.5399 6.956C48.7957 6.5169 47.9621 6.29734 47.0393 6.29734C45.6475 6.29734 44.4716 6.7811 43.5115 7.74863C42.5589 8.71615 42.0826 9.90322 42.0826 11.3098C42.0826 12.7016 42.5663 13.8812 43.5339 14.8487C44.5088 15.8088 45.6996 16.2889 47.1062 16.2889C47.9993 16.2889 48.7696 16.1028 49.4171 15.7307C50.0721 15.3586 50.727 14.7371 51.3819 13.8663Z"
    fill="#FFFFFF" />
  <path
    d="M56.2431 17.5504C56.2431 17.5504 56.2431 11.9201 56.2431 0.659668C56.2431 0.659668 56.8087 0.659668 57.94 0.659668C57.94 0.659668 57.94 4.65256 57.94 12.6383C57.94 12.6383 59.8824 10.1079 63.7674 5.04701C63.7674 5.04701 64.4596 5.04701 65.8439 5.04701C65.8439 5.04701 64.2214 7.14206 60.9765 11.3322C60.9765 11.3322 62.7069 13.4049 66.1676 17.5504C66.1676 17.5504 65.4643 17.5504 64.0577 17.5504C64.0577 17.5504 62.6734 15.8795 59.9048 12.5379C59.9048 12.5379 59.2498 13.3491 57.94 14.9715C57.94 14.9715 57.94 15.8312 57.94 17.5504C57.94 17.5504 57.3743 17.5504 56.2431 17.5504Z"
    fill="#FFFFFF" />
  <path
    d="M69.9347 17.5504C69.9347 17.5504 69.9347 13.8924 69.9347 6.57644C69.9347 6.57644 69.0379 6.57644 67.2442 6.57644C67.2442 6.57644 67.2442 6.06663 67.2442 5.04701C67.2442 5.04701 68.1411 5.04701 69.9347 5.04701C69.9347 5.04701 69.9347 3.58456 69.9347 0.659668C69.9347 0.659668 70.5003 0.659668 71.6316 0.659668C71.6316 0.659668 71.6316 2.12211 71.6316 5.04701C71.6316 5.04701 72.5693 5.04701 74.4448 5.04701C74.4448 5.04701 74.4448 5.55682 74.4448 6.57644C74.4448 6.57644 73.5071 6.57644 71.6316 6.57644C71.6316 6.57644 71.6316 10.2344 71.6316 17.5504C71.6316 17.5504 71.0659 17.5504 69.9347 17.5504Z"
    fill="#FFFFFF" />
  <path
    d="M87.8574 5.04701C87.8574 5.04701 87.8574 9.21479 87.8574 17.5504C87.8574 17.5504 87.2955 17.5504 86.1716 17.5504C86.1716 17.5504 86.1716 16.9029 86.1716 15.6079C85.7474 16.3819 85.2116 16.9512 84.5641 17.3159C83.9166 17.6732 83.1091 17.8518 82.1416 17.8518C81.174 17.8518 80.3144 17.6732 79.5627 17.3159C78.8185 16.9512 78.2156 16.4266 77.7542 15.7418C77.1439 14.8636 76.8388 13.5463 76.8388 11.7899V5.04701C76.8388 5.04701 77.4044 5.04701 78.5357 5.04701C78.5357 5.04701 78.5357 7.29463 78.5357 11.7899C78.5357 13.1593 78.7478 14.164 79.172 14.8041C79.4697 15.273 79.8865 15.6376 80.4223 15.8981C80.9656 16.1586 81.5759 16.2889 82.2532 16.2889C82.9156 16.2889 83.5184 16.1549 84.0617 15.887C84.6124 15.619 85.0627 15.2358 85.4125 14.7371C85.9186 13.9854 86.1716 12.8951 86.1716 11.4661V5.04701H87.8574Z"
    fill="#FFFFFF" />
  <path
    d="M91.4347 17.5504C91.4347 17.5504 91.4347 13.3826 91.4347 5.04701C91.4347 5.04701 92.0003 5.04701 93.1316 5.04701C93.1316 5.04701 93.1316 5.52705 93.1316 6.48713C93.6228 5.85452 94.1326 5.40797 94.661 5.14748C95.1968 4.87955 95.8592 4.74559 96.6481 4.74559C97.6008 4.74559 98.3971 4.93537 99.0372 5.31494C99.6847 5.68706 100.254 6.29734 100.745 7.14579C101.266 6.31223 101.873 5.70567 102.565 5.3261C103.264 4.93909 104.098 4.74559 105.066 4.74559C105.914 4.74559 106.681 4.9056 107.365 5.22563C108.057 5.54565 108.623 6.00337 109.062 6.59876C109.687 7.44721 110 8.61939 110 10.1153V17.5504H108.303V10.3051C108.303 9.01757 108.054 8.05749 107.555 7.42488C107.28 7.07508 106.915 6.79971 106.461 6.59876C106.007 6.39782 105.516 6.29734 104.987 6.29734C104.385 6.29734 103.823 6.43503 103.302 6.7104C102.788 6.97833 102.383 7.34673 102.085 7.81561C101.735 8.37379 101.56 9.20363 101.56 10.3051V17.5504H99.8744V10.2605C99.8744 8.97291 99.5916 8.01283 99.026 7.38022C98.3785 6.6583 97.5338 6.29734 96.4918 6.29734C95.4425 6.29734 94.6201 6.64714 94.0247 7.34673C93.4293 8.04632 93.1316 9.01757 93.1316 10.2605V17.5504C93.1316 17.5504 92.5659 17.5504 91.4347 17.5504Z"
    fill="#FFFFFF" />
  <circle cx="9.10609" cy="9.34095" r="8.26553" stroke="#FFFFFF" stroke-width="1.68112" />
  <path d="M14.5703 14.8047L18.3528 17.1863" stroke="#FFFFFF" stroke-width="1.68112" />
  <defs>
    <linearGradient id="paint0_linear_74_643" x1="1.67969" y1="11.075" x2="17.7554"
      y2="10.4446" gradientUnits="userSpaceOnUse">
      <stop stop-color="#1E5CFB" />
      <stop offset="1" stop-color="#759CFF" />
    </linearGradient>
  </defs>
</svg>

